<?xml version="1.0" encoding="utf-8" standalone="no"?>
<!DOCTYPE svg PUBLIC "-//W3C//DTD SVG 1.1//EN"
  "http://www.w3.org/Graphics/SVG/1.1/DTD/svg11.dtd">
<svg xmlns:xlink="http://www.w3.org/1999/xlink" width="345.57pt" height="345.441375pt" viewBox="0 0 345.57 345.441375" xmlns="http://www.w3.org/2000/svg" version="1.1">
 <metadata>
  <rdf:RDF xmlns:dc="http://purl.org/dc/elements/1.1/" xmlns:cc="http://creativecommons.org/ns#" xmlns:rdf="http://www.w3.org/1999/02/22-rdf-syntax-ns#">
   <cc:Work>
    <dc:type rdf:resource="http://purl.org/dc/dcmitype/StillImage"/>
    <dc:date>2024-02-23T11:02:52.327146</dc:date>
    <dc:format>image/svg+xml</dc:format>
    <dc:creator>
     <cc:Agent>
      <dc:title>Matplotlib v3.6.2, https://matplotlib.org/</dc:title>
     </cc:Agent>
    </dc:creator>
   </cc:Work>
  </rdf:RDF>
 </metadata>
 <defs>
  <style type="text/css">*{stroke-linejoin: round; stroke-linecap: butt}</style>
 </defs>
 <g id="figure_1">
  <g id="patch_1">
   <path d="M 0 345.441375 
L 345.57 345.441375 
L 345.57 0 
L 0 0 
z
" style="fill: #ffffff"/>
  </g>
  <g id="axes_1">
   <g id="patch_2">
    <path d="M 55.2 97.594221 
L 166.762792 97.594221 
L 166.762792 18.441375 
L 55.2 18.441375 
z
" style="fill: #ffffff"/>
   </g>
   <g id="PolyCollection_1">
    <defs>
     <path id="m3305707a62" d="M 60.703183 -253.748901 
L 60.703183 -256.526194 
L 66.206367 -257.567679 
L 77.212733 -266.246719 
L 88.2191 -288.812223 
L 99.225467 -297.491264 
L 110.231833 -305.3024 
L 121.2382 -309.468339 
L 132.244567 -312.939955 
L 143.250933 -315.890829 
L 154.2573 -316.932313 
L 165.263667 -319.015283 
L 165.263667 -312.072051 
L 165.263667 -312.072051 
L 154.2573 -310.336243 
L 143.250933 -308.947597 
L 132.244567 -305.47598 
L 121.2382 -302.351526 
L 110.231833 -297.838425 
L 99.225467 -292.978163 
L 88.2191 -270.412658 
L 77.212733 -261.039295 
L 66.206367 -254.790386 
L 60.703183 -253.748901 
z
" style="stroke: #3f784c; stroke-opacity: 0.2"/>
    </defs>
    <g clip-path="url(#pb9387df4bf)">
     <use xlink:href="#m3305707a62" x="0" y="345.441375" style="fill: #3f784c; fill-opacity: 0.2; stroke: #3f784c; stroke-opacity: 0.2"/>
    </g>
   </g>
   <g id="PolyCollection_2">
    <defs>
     <path id="m6b7f7bb75b" d="M 60.703183 -293.672486 
L 60.703183 -299.053491 
L 66.206367 -311.724889 
L 77.212733 -316.23799 
L 88.2191 -317.973798 
L 99.225467 -320.40393 
L 110.231833 -322.834061 
L 121.2382 -324.222707 
L 132.244567 -325.264192 
L 143.250933 -325.958515 
L 154.2573 -325.611354 
L 165.263667 -325.612221 
L 165.263667 -321.445414 
L 165.263667 -321.445414 
L 154.2573 -322.139738 
L 143.250933 -321.445414 
L 132.244567 -322.139738 
L 121.2382 -318.32096 
L 110.231833 -317.279475 
L 99.225467 -315.196505 
L 88.2191 -313.807859 
L 77.212733 -311.030566 
L 66.206367 -304.260915 
L 60.703183 -293.672486 
z
" style="stroke: #c17817; stroke-opacity: 0.2"/>
    </defs>
    <g clip-path="url(#pb9387df4bf)">
     <use xlink:href="#m6b7f7bb75b" x="0" y="345.441375" style="fill: #c17817; fill-opacity: 0.2; stroke: #c17817; stroke-opacity: 0.2"/>
    </g>
   </g>
   <g id="PolyCollection_3">
    <defs>
     <path id="md6f1fa8866" d="M 60.703183 -291.242355 
L 60.703183 -298.185587 
L 66.206367 -305.128819 
L 77.212733 -311.724889 
L 88.2191 -316.23799 
L 99.225467 -320.056768 
L 110.231833 -323.875546 
L 121.2382 -322.313318 
L 132.244567 -324.569869 
L 143.250933 -327 
L 154.2573 -326.479258 
L 165.263667 -325.611354 
L 165.263667 -322.834061 
L 165.263667 -322.834061 
L 154.2573 -320.056768 
L 143.250933 -319.015283 
L 132.244567 -319.015283 
L 121.2382 -318.668121 
L 110.231833 -314.849344 
L 99.225467 -315.543667 
L 88.2191 -313.460697 
L 77.212733 -309.294758 
L 66.206367 -298.87991 
L 60.703183 -291.242355 
z
" style="stroke: #b20d30; stroke-opacity: 0.2"/>
    </defs>
    <g clip-path="url(#pb9387df4bf)">
     <use xlink:href="#md6f1fa8866" x="0" y="345.441375" style="fill: #b20d30; fill-opacity: 0.2; stroke: #b20d30; stroke-opacity: 0.2"/>
    </g>
   </g>
   <g id="matplotlib.axis_1">
    <g id="xtick_1">
     <g id="line2d_1">
      <defs>
       <path id="ma7924e5b42" d="M 0 0 
L 0 3.5 
" style="stroke: #000000; stroke-width: 0.8"/>
      </defs>
      <g>
       <use xlink:href="#ma7924e5b42" x="55.2" y="107.594221" style="stroke: #000000; stroke-width: 0.8"/>
      </g>
     </g>
     <g id="text_1">
      <text style="font: 6px 'Arial', sans-serif; text-anchor: middle" x="55.2" y="118.888908" transform="rotate(-0 55.2 118.888908)">0</text>
     </g>
    </g>
    <g id="xtick_2">
     <g id="line2d_2">
      <g>
       <use xlink:href="#ma7924e5b42" x="83.090698" y="107.594221" style="stroke: #000000; stroke-width: 0.8"/>
      </g>
     </g>
     <g id="text_2">
      <text style="font: 6px 'Arial', sans-serif; text-anchor: middle" x="83.090698" y="118.888908" transform="rotate(-0 83.090698 118.888908)">1</text>
     </g>
    </g>
    <g id="xtick_3">
     <g id="line2d_3">
      <g>
       <use xlink:href="#ma7924e5b42" x="110.981396" y="107.594221" style="stroke: #000000; stroke-width: 0.8"/>
      </g>
     </g>
     <g id="text_3">
      <text style="font: 6px 'Arial', sans-serif; text-anchor: middle" x="110.981396" y="118.888908" transform="rotate(-0 110.981396 118.888908)">2</text>
     </g>
    </g>
    <g id="xtick_4">
     <g id="line2d_4">
      <g>
       <use xlink:href="#ma7924e5b42" x="138.872094" y="107.594221" style="stroke: #000000; stroke-width: 0.8"/>
      </g>
     </g>
     <g id="text_4">
      <text style="font: 6px 'Arial', sans-serif; text-anchor: middle" x="138.872094" y="118.888908" transform="rotate(-0 138.872094 118.888908)">3</text>
     </g>
    </g>
    <g id="xtick_5">
     <g id="line2d_5">
      <g>
       <use xlink:href="#ma7924e5b42" x="166.762792" y="107.594221" style="stroke: #000000; stroke-width: 0.8"/>
      </g>
     </g>
     <g id="text_5">
      <text style="font: 6px 'Arial', sans-serif; text-anchor: middle" x="166.762792" y="118.888908" transform="rotate(-0 166.762792 118.888908)">4</text>
     </g>
    </g>
    <g id="text_6">
     <text style="font: 6px 'Arial', sans-serif; text-anchor: middle" x="110.981396" y="128.449221" transform="rotate(-0 110.981396 128.449221)">Hours of training data</text>
    </g>
   </g>
   <g id="matplotlib.axis_2">
    <g id="ytick_1">
     <g id="line2d_6">
      <defs>
       <path id="mbd060c435f" d="M 0 0 
L -3.5 0 
" style="stroke: #000000; stroke-width: 0.8"/>
      </defs>
      <g>
       <use xlink:href="#mbd060c435f" x="45.2" y="97.594221" style="stroke: #000000; stroke-width: 0.8"/>
      </g>
     </g>
     <g id="text_7">
      <text style="font: 6px 'Arial', sans-serif; text-anchor: end" x="38.2" y="99.741565" transform="rotate(-0 38.2 99.741565)">0</text>
     </g>
    </g>
    <g id="ytick_2">
     <g id="line2d_7">
      <g>
       <use xlink:href="#mbd060c435f" x="45.2" y="71.209939" style="stroke: #000000; stroke-width: 0.8"/>
      </g>
     </g>
     <g id="text_8">
      <text style="font: 6px 'Arial', sans-serif; text-anchor: end" x="38.2" y="73.357283" transform="rotate(-0 38.2 73.357283)">25</text>
     </g>
    </g>
    <g id="ytick_3">
     <g id="line2d_8">
      <g>
       <use xlink:href="#mbd060c435f" x="45.2" y="44.825657" style="stroke: #000000; stroke-width: 0.8"/>
      </g>
     </g>
     <g id="text_9">
      <text style="font: 6px 'Arial', sans-serif; text-anchor: end" x="38.2" y="46.973001" transform="rotate(-0 38.2 46.973001)">50</text>
     </g>
    </g>
    <g id="ytick_4">
     <g id="line2d_9">
      <g>
       <use xlink:href="#mbd060c435f" x="45.2" y="18.441375" style="stroke: #000000; stroke-width: 0.8"/>
      </g>
     </g>
     <g id="text_10">
      <text style="font: 6px 'Arial', sans-serif; text-anchor: end" x="38.2" y="20.588719" transform="rotate(-0 38.2 20.588719)">75</text>
     </g>
    </g>
    <g id="text_11">
     <text style="font: 6px 'Arial', sans-serif; text-anchor: middle" x="26.264063" y="58.017798" transform="rotate(-90 26.264063 58.017798)">Classification accuracy (%)</text>
    </g>
   </g>
   <g id="line2d_10">
    <path d="M 60.703183 89.956666 
L 66.206367 89.609504 
L 77.212733 81.798368 
L 88.2191 62.87806 
L 99.225467 49.338758 
L 110.231833 43.610591 
L 121.2382 38.92391 
L 132.244567 35.625874 
L 143.250933 34.75797 
L 154.2573 30.765612 
L 165.263667 30.24487 
" clip-path="url(#pb9387df4bf)" style="fill: none; stroke: #3f784c; stroke-width: 2; stroke-linecap: square"/>
   </g>
   <g id="line2d_11">
    <path d="M 60.703183 49.512339 
L 66.206367 38.785045 
L 77.212733 32.015394 
L 88.2191 29.307533 
L 99.225467 26.80797 
L 110.231833 25.349891 
L 121.2382 24.169541 
L 132.244567 21.600546 
L 143.250933 21.704694 
L 154.2573 21.531113 
L 165.263667 21.73941 
" clip-path="url(#pb9387df4bf)" style="fill: none; stroke: #c17817; stroke-width: 1.5; stroke-linecap: square"/>
   </g>
   <g id="line2d_12">
    <path d="M 60.703183 50.657972 
L 66.206367 42.9857 
L 77.212733 35.000984 
L 88.2191 30.765612 
L 99.225467 27.884171 
L 110.231833 26.252511 
L 121.2382 25.106878 
L 132.244567 23.266921 
L 143.250933 23.336354 
L 154.2573 21.774126 
L 165.263667 21.253384 
" clip-path="url(#pb9387df4bf)" style="fill: none; stroke: #b20d30; stroke-width: 1.5; stroke-linecap: square"/>
   </g>
   <g id="line2d_13">
    <path d="M 55.2 93.372736 
L 166.762792 93.372736 
" clip-path="url(#pb9387df4bf)" style="fill: none; stroke-dasharray: 5.55,2.4; stroke-dashoffset: 0; stroke: #000000; stroke-width: 1.5"/>
   </g>
   <g id="patch_3">
    <path d="M 45.2 97.594221 
L 45.2 18.441375 
" style="fill: none; stroke: #000000; stroke-width: 0.8; stroke-linejoin: miter; stroke-linecap: square"/>
   </g>
   <g id="patch_4">
    <path d="M 55.2 107.594221 
L 166.762792 107.594221 
" style="fill: none; stroke: #000000; stroke-width: 0.8; stroke-linejoin: miter; stroke-linecap: square"/>
   </g>
   <g id="text_12">
    <text style="font: 7.2px 'Arial', sans-serif; text-anchor: middle" x="110.981396" y="12.441375" transform="rotate(-0 110.981396 12.441375)">Spanish fine tune and test</text>
   </g>
   <g id="legend_1">
    <g id="patch_5">
     <path d="M 99.672479 94.594221 
L 162.562792 94.594221 
Q 163.762792 94.594221 163.762792 93.394221 
L 163.762792 68.389221 
Q 163.762792 67.189221 162.562792 67.189221 
L 99.672479 67.189221 
Q 98.472479 67.189221 98.472479 68.389221 
L 98.472479 93.394221 
Q 98.472479 94.594221 99.672479 94.594221 
z
" style="fill: #ffffff; opacity: 0.8; stroke: #cccccc; stroke-linejoin: miter"/>
    </g>
    <g id="line2d_14">
     <path d="M 100.872479 71.783908 
L 106.872479 71.783908 
L 112.872479 71.783908 
" style="fill: none; stroke: #3f784c; stroke-width: 2; stroke-linecap: square"/>
    </g>
    <g id="text_13">
     <text style="font: 6px 'Arial', sans-serif; text-anchor: start" x="117.672479" y="73.883908" transform="rotate(-0 117.672479 73.883908)">No pretrain</text>
    </g>
    <g id="line2d_15">
     <path d="M 100.872479 80.344221 
L 106.872479 80.344221 
L 112.872479 80.344221 
" style="fill: none; stroke: #c17817; stroke-width: 1.5; stroke-linecap: square"/>
    </g>
    <g id="text_14">
     <text style="font: 6px 'Arial', sans-serif; text-anchor: start" x="117.672479" y="82.444221" transform="rotate(-0 117.672479 82.444221)">Spanish pretrain</text>
    </g>
    <g id="line2d_16">
     <path d="M 100.872479 88.831408 
L 106.872479 88.831408 
L 112.872479 88.831408 
" style="fill: none; stroke: #b20d30; stroke-width: 1.5; stroke-linecap: square"/>
    </g>
    <g id="text_15">
     <text style="font: 6px 'Arial', sans-serif; text-anchor: start" x="117.672479" y="90.931408" transform="rotate(-0 117.672479 90.931408)">English pretrain</text>
    </g>
   </g>
  </g>
  <g id="axes_2">
   <g id="patch_6">
    <path d="M 222.637208 97.594221 
L 334.2 97.594221 
L 334.2 18.441375 
L 222.637208 18.441375 
z
" style="fill: #ffffff"/>
   </g>
   <g id="PolyCollection_4">
    <defs>
     <path id="m3baefafc9b" d="M 228.010235 -251.400593 
L 228.010235 -254.243344 
L 233.383262 -256.020063 
L 244.129315 -262.416253 
L 254.875369 -272.721225 
L 265.621422 -284.981476 
L 276.367476 -294.041857 
L 287.113529 -299.727358 
L 297.859583 -302.214765 
L 308.605636 -304.524501 
L 319.35169 -307.18958 
L 330.097743 -308.610955 
L 330.097743 -302.925453 
L 330.097743 -302.925453 
L 319.35169 -302.570109 
L 308.605636 -298.661327 
L 297.859583 -297.595295 
L 287.113529 -295.818576 
L 276.367476 -285.868948 
L 265.621422 -279.294198 
L 254.875369 -263.655514 
L 244.129315 -257.086095 
L 233.383262 -253.177312 
L 228.010235 -251.400593 
z
" style="stroke: #3f784c; stroke-opacity: 0.2"/>
    </defs>
    <g clip-path="url(#pdc75aa87d7)">
     <use xlink:href="#m3baefafc9b" x="0" y="345.441375" style="fill: #3f784c; fill-opacity: 0.2; stroke: #3f784c; stroke-opacity: 0.2"/>
    </g>
   </g>
   <g id="PolyCollection_5">
    <defs>
     <path id="m1047644893" d="M 228.010235 -286.579635 
L 228.010235 -293.508841 
L 233.383262 -302.392437 
L 244.129315 -306.834236 
L 254.875369 -311.80905 
L 265.621422 -313.230425 
L 276.367476 -313.230425 
L 287.113529 -315.362488 
L 297.859583 -316.783864 
L 308.605636 -316.42852 
L 319.35169 -317.317768 
L 330.097743 -319.271271 
L 330.097743 -313.408097 
L 330.097743 -313.408097 
L 319.35169 -312.694744 
L 308.605636 -312.164394 
L 297.859583 -311.098362 
L 287.113529 -310.743018 
L 276.367476 -310.03233 
L 265.621422 -307.18958 
L 254.875369 -305.768204 
L 244.129315 -302.036205 
L 233.383262 -298.125646 
L 228.010235 -286.579635 
z
" style="stroke: #c17817; stroke-opacity: 0.2"/>
    </defs>
    <g clip-path="url(#pdc75aa87d7)">
     <use xlink:href="#m1047644893" x="0" y="345.441375" style="fill: #c17817; fill-opacity: 0.2; stroke: #c17817; stroke-opacity: 0.2"/>
    </g>
   </g>
   <g id="PolyCollection_6">
    <defs>
     <path id="m0a57afbb72" d="M 228.010235 -285.15826 
L 228.010235 -290.843762 
L 233.383262 -299.016671 
L 244.129315 -304.170933 
L 254.875369 -309.676987 
L 265.621422 -311.098362 
L 276.367476 -312.697409 
L 287.113529 -314.651801 
L 297.859583 -317.494552 
L 308.605636 -315.185705 
L 319.35169 -317.139208 
L 330.097743 -316.783864 
L 330.097743 -313.585769 
L 330.097743 -313.585769 
L 319.35169 -312.519738 
L 308.605636 -312.164394 
L 297.859583 -309.321643 
L 287.113529 -310.919802 
L 276.367476 -307.722595 
L 265.621422 -305.768204 
L 254.875369 -303.810259 
L 244.129315 -301.148734 
L 233.383262 -293.686513 
L 228.010235 -285.15826 
z
" style="stroke: #b20d30; stroke-opacity: 0.2"/>
    </defs>
    <g clip-path="url(#pdc75aa87d7)">
     <use xlink:href="#m0a57afbb72" x="0" y="345.441375" style="fill: #b20d30; fill-opacity: 0.2; stroke: #b20d30; stroke-opacity: 0.2"/>
    </g>
   </g>
   <g id="matplotlib.axis_3">
    <g id="xtick_6">
     <g id="line2d_17">
      <g>
       <use xlink:href="#ma7924e5b42" x="222.637208" y="107.594221" style="stroke: #000000; stroke-width: 0.8"/>
      </g>
     </g>
     <g id="text_16">
      <text style="font: 6px 'Arial', sans-serif; text-anchor: middle" x="222.637208" y="118.888908" transform="rotate(-0 222.637208 118.888908)">0</text>
     </g>
    </g>
    <g id="xtick_7">
     <g id="line2d_18">
      <g>
       <use xlink:href="#ma7924e5b42" x="250.527906" y="107.594221" style="stroke: #000000; stroke-width: 0.8"/>
      </g>
     </g>
     <g id="text_17">
      <text style="font: 6px 'Arial', sans-serif; text-anchor: middle" x="250.527906" y="118.888908" transform="rotate(-0 250.527906 118.888908)">1</text>
     </g>
    </g>
    <g id="xtick_8">
     <g id="line2d_19">
      <g>
       <use xlink:href="#ma7924e5b42" x="278.418604" y="107.594221" style="stroke: #000000; stroke-width: 0.8"/>
      </g>
     </g>
     <g id="text_18">
      <text style="font: 6px 'Arial', sans-serif; text-anchor: middle" x="278.418604" y="118.888908" transform="rotate(-0 278.418604 118.888908)">2</text>
     </g>
    </g>
    <g id="xtick_9">
     <g id="line2d_20">
      <g>
       <use xlink:href="#ma7924e5b42" x="306.309302" y="107.594221" style="stroke: #000000; stroke-width: 0.8"/>
      </g>
     </g>
     <g id="text_19">
      <text style="font: 6px 'Arial', sans-serif; text-anchor: middle" x="306.309302" y="118.888908" transform="rotate(-0 306.309302 118.888908)">3</text>
     </g>
    </g>
    <g id="xtick_10">
     <g id="line2d_21">
      <g>
       <use xlink:href="#ma7924e5b42" x="334.2" y="107.594221" style="stroke: #000000; stroke-width: 0.8"/>
      </g>
     </g>
     <g id="text_20">
      <text style="font: 6px 'Arial', sans-serif; text-anchor: middle" x="334.2" y="118.888908" transform="rotate(-0 334.2 118.888908)">4</text>
     </g>
    </g>
    <g id="text_21">
     <text style="font: 6px 'Arial', sans-serif; text-anchor: middle" x="278.418604" y="128.449221" transform="rotate(-0 278.418604 128.449221)">Hours of training data</text>
    </g>
   </g>
   <g id="matplotlib.axis_4">
    <g id="ytick_5">
     <g id="line2d_22">
      <g>
       <use xlink:href="#mbd060c435f" x="212.637208" y="97.594221" style="stroke: #000000; stroke-width: 0.8"/>
      </g>
     </g>
     <g id="text_22">
      <text style="font: 6px 'Arial', sans-serif; text-anchor: end" x="205.637208" y="99.741565" transform="rotate(-0 205.637208 99.741565)">0</text>
     </g>
    </g>
    <g id="ytick_6">
     <g id="line2d_23">
      <g>
       <use xlink:href="#mbd060c435f" x="212.637208" y="71.209939" style="stroke: #000000; stroke-width: 0.8"/>
      </g>
     </g>
     <g id="text_23">
      <text style="font: 6px 'Arial', sans-serif; text-anchor: end" x="205.637208" y="73.357283" transform="rotate(-0 205.637208 73.357283)">25</text>
     </g>
    </g>
    <g id="ytick_7">
     <g id="line2d_24">
      <g>
       <use xlink:href="#mbd060c435f" x="212.637208" y="44.825657" style="stroke: #000000; stroke-width: 0.8"/>
      </g>
     </g>
     <g id="text_24">
      <text style="font: 6px 'Arial', sans-serif; text-anchor: end" x="205.637208" y="46.973001" transform="rotate(-0 205.637208 46.973001)">50</text>
     </g>
    </g>
    <g id="ytick_8">
     <g id="line2d_25">
      <g>
       <use xlink:href="#mbd060c435f" x="212.637208" y="18.441375" style="stroke: #000000; stroke-width: 0.8"/>
      </g>
     </g>
     <g id="text_25">
      <text style="font: 6px 'Arial', sans-serif; text-anchor: end" x="205.637208" y="20.588719" transform="rotate(-0 205.637208 20.588719)">75</text>
     </g>
    </g>
    <g id="text_26">
     <text style="font: 6px 'Arial', sans-serif; text-anchor: middle" x="193.701271" y="58.017798" transform="rotate(-90 193.701271 58.017798)">Classification accuracy (%)</text>
    </g>
   </g>
   <g id="line2d_26">
    <path d="M 228.010235 92.086391 
L 233.383262 90.842687 
L 244.129315 85.334858 
L 254.875369 78.938668 
L 265.621422 63.48121 
L 276.367476 54.419941 
L 287.113529 47.668408 
L 297.859583 45.003329 
L 308.605636 43.581953 
L 319.35169 39.850843 
L 330.097743 38.607139 
" clip-path="url(#pdc75aa87d7)" style="fill: none; stroke: #3f784c; stroke-width: 2; stroke-linecap: square"/>
   </g>
   <g id="line2d_27">
    <path d="M 228.010235 55.130629 
L 233.383262 44.93226 
L 244.129315 41.023478 
L 254.875369 36.759351 
L 265.621422 34.876029 
L 276.367476 33.809997 
L 287.113529 32.175415 
L 297.859583 31.820072 
L 308.605636 31.038315 
L 319.35169 30.718506 
L 330.097743 29.403733 
" clip-path="url(#pdc75aa87d7)" style="fill: none; stroke: #c17817; stroke-width: 1.5; stroke-linecap: square"/>
   </g>
   <g id="line2d_28">
    <path d="M 228.010235 57.440364 
L 233.383262 48.663371 
L 244.129315 43.155541 
L 254.875369 38.571605 
L 265.621422 37.612177 
L 276.367476 34.627288 
L 287.113529 32.45969 
L 297.859583 32.530759 
L 308.605636 31.820072 
L 319.35169 30.363162 
L 330.097743 30.007818 
" clip-path="url(#pdc75aa87d7)" style="fill: none; stroke: #b20d30; stroke-width: 1.5; stroke-linecap: square"/>
   </g>
   <g id="line2d_29">
    <path d="M 222.637208 93.372736 
L 334.2 93.372736 
" clip-path="url(#pdc75aa87d7)" style="fill: none; stroke-dasharray: 5.55,2.4; stroke-dashoffset: 0; stroke: #000000; stroke-width: 1.5"/>
   </g>
   <g id="patch_7">
    <path d="M 212.637208 97.594221 
L 212.637208 18.441375 
" style="fill: none; stroke: #000000; stroke-width: 0.8; stroke-linejoin: miter; stroke-linecap: square"/>
   </g>
   <g id="patch_8">
    <path d="M 222.637208 107.594221 
L 334.2 107.594221 
" style="fill: none; stroke: #000000; stroke-width: 0.8; stroke-linejoin: miter; stroke-linecap: square"/>
   </g>
   <g id="text_27">
    <text style="font: 7.2px 'Arial', sans-serif; text-anchor: middle" x="278.418604" y="12.441375" transform="rotate(-0 278.418604 12.441375)">English fine tune and test</text>
   </g>
  </g>
  <g id="axes_3">
   <g id="patch_9">
    <path d="M 55.2 295.641375 
L 129.554523 295.641375 
L 129.554523 157.074383 
L 55.2 157.074383 
z
" style="fill: #ffffff"/>
   </g>
   <g id="matplotlib.axis_5">
    <g id="xtick_11">
     <g id="line2d_30">
      <g>
       <use xlink:href="#ma7924e5b42" x="73.788631" y="305.641375" style="stroke: #000000; stroke-width: 0.8"/>
      </g>
     </g>
     <g id="text_28">
      <text style="font: 6px 'Arial', sans-serif" transform="translate(66.117537 316.936063)">Acou.</text>
      <text style="font: 6px 'Arial', sans-serif" transform="translate(65.12285 323.282188)">similar</text>
     </g>
    </g>
    <g id="xtick_12">
     <g id="line2d_31">
      <g>
       <use xlink:href="#ma7924e5b42" x="110.965892" y="305.641375" style="stroke: #000000; stroke-width: 0.8"/>
      </g>
     </g>
     <g id="text_29">
      <text style="font: 6px 'Arial', sans-serif" transform="translate(103.294799 316.936063)">Acou.</text>
      <text style="font: 6px 'Arial', sans-serif" transform="translate(100.179486 323.282188)">different</text>
     </g>
    </g>
   </g>
   <g id="matplotlib.axis_6">
    <g id="ytick_9">
     <g id="line2d_32">
      <g>
       <use xlink:href="#mbd060c435f" x="45.2" y="295.641375" style="stroke: #000000; stroke-width: 0.8"/>
      </g>
     </g>
     <g id="text_30">
      <text style="font: 6px 'Arial', sans-serif; text-anchor: end" x="38.2" y="297.788719" transform="rotate(-0 38.2 297.788719)">0</text>
     </g>
    </g>
    <g id="ytick_10">
     <g id="line2d_33">
      <g>
       <use xlink:href="#mbd060c435f" x="45.2" y="249.452378" style="stroke: #000000; stroke-width: 0.8"/>
      </g>
     </g>
     <g id="text_31">
      <text style="font: 6px 'Arial', sans-serif; text-anchor: end" x="38.2" y="251.599721" transform="rotate(-0 38.2 251.599721)">5</text>
     </g>
    </g>
    <g id="ytick_11">
     <g id="line2d_34">
      <g>
       <use xlink:href="#mbd060c435f" x="45.2" y="203.26338" style="stroke: #000000; stroke-width: 0.8"/>
      </g>
     </g>
     <g id="text_32">
      <text style="font: 6px 'Arial', sans-serif; text-anchor: end" x="38.2" y="205.410724" transform="rotate(-0 38.2 205.410724)">10</text>
     </g>
    </g>
    <g id="ytick_12">
     <g id="line2d_35">
      <g>
       <use xlink:href="#mbd060c435f" x="45.2" y="157.074383" style="stroke: #000000; stroke-width: 0.8"/>
      </g>
     </g>
     <g id="text_33">
      <text style="font: 6px 'Arial', sans-serif; text-anchor: end" x="38.2" y="159.221727" transform="rotate(-0 38.2 159.221727)">15</text>
     </g>
    </g>
    <g id="text_34">
     <text style="font: 6px 'Arial', sans-serif" transform="translate(19.917938 275.701316) rotate(-90)">Paired mel-cepstral distortion (MCD) </text>
     <text style="font: 6px 'Arial', sans-serif" transform="translate(26.334375 240.196785) rotate(-90)"> to test set</text>
    </g>
   </g>
   <g id="patch_10">
    <path d="M 58.917726 265.366427 
L 88.659535 265.366427 
L 88.659535 247.451677 
L 58.917726 247.451677 
L 58.917726 265.366427 
z
" clip-path="url(#p9f5a2e21f0)" style="fill: #95a3c3; opacity: 0.3; stroke: #676767; stroke-linejoin: miter"/>
   </g>
   <g id="line2d_36">
    <path d="M 73.788631 265.366427 
L 73.788631 266.589061 
" style="fill: none; stroke: #676767"/>
   </g>
   <g id="line2d_37">
    <path d="M 73.788631 247.451677 
L 73.788631 240.092806 
" style="fill: none; stroke: #676767"/>
   </g>
   <g id="line2d_38">
    <path d="M 66.353178 266.589061 
L 81.224083 266.589061 
" style="fill: none; stroke: #676767; stroke-linecap: square"/>
   </g>
   <g id="line2d_39">
    <path d="M 66.353178 240.092806 
L 81.224083 240.092806 
" style="fill: none; stroke: #676767; stroke-linecap: square"/>
   </g>
   <g id="line2d_40">
    <defs>
     <path id="m83b4188aa1" d="M 0 3 
C 0.795609 3 1.55874 2.683901 2.12132 2.12132 
C 2.683901 1.55874 3 0.795609 3 0 
C 3 -0.795609 2.683901 -1.55874 2.12132 -2.12132 
C 1.55874 -2.683901 0.795609 -3 0 -3 
C -0.795609 -3 -1.55874 -2.683901 -2.12132 -2.12132 
C -2.683901 -1.55874 -3 -0.795609 -3 0 
C -3 0.795609 -2.683901 1.55874 -2.12132 2.12132 
C -1.55874 2.683901 -0.795609 3 0 3 
z
" style="stroke: #676767"/>
    </defs>
    <g>
     <use xlink:href="#m83b4188aa1" x="73.788631" y="295.641375" style="fill-opacity: 0; stroke: #676767"/>
     <use xlink:href="#m83b4188aa1" x="73.788631" y="215.692477" style="fill-opacity: 0; stroke: #676767"/>
    </g>
   </g>
   <g id="patch_11">
    <path d="M 96.094988 231.746605 
L 125.836797 231.746605 
L 125.836797 209.49086 
L 96.094988 209.49086 
L 96.094988 231.746605 
z
" clip-path="url(#p9f5a2e21f0)" style="fill: #db96c0; opacity: 0.3; stroke: #676767; stroke-linejoin: miter"/>
   </g>
   <g id="line2d_41">
    <path d="M 110.965892 231.746605 
L 110.965892 238.287917 
" style="fill: none; stroke: #676767"/>
   </g>
   <g id="line2d_42">
    <path d="M 110.965892 209.49086 
L 110.965892 195.847002 
" style="fill: none; stroke: #676767"/>
   </g>
   <g id="line2d_43">
    <path d="M 103.53044 238.287917 
L 118.401345 238.287917 
" style="fill: none; stroke: #676767; stroke-linecap: square"/>
   </g>
   <g id="line2d_44">
    <path d="M 103.53044 195.847002 
L 118.401345 195.847002 
" style="fill: none; stroke: #676767; stroke-linecap: square"/>
   </g>
   <g id="line2d_45"/>
   <g id="line2d_46">
    <path d="M 58.917726 255.292636 
L 88.659535 255.292636 
" style="fill: none; stroke: #676767"/>
   </g>
   <g id="line2d_47">
    <path d="M 96.094988 222.116108 
L 125.836797 222.116108 
" style="fill: none; stroke: #676767"/>
   </g>
   <g id="patch_12">
    <path d="M 45.2 295.641375 
L 45.2 157.074383 
" style="fill: none; stroke: #000000; stroke-width: 0.8; stroke-linejoin: miter; stroke-linecap: square"/>
   </g>
   <g id="patch_13">
    <path d="M 55.2 305.641375 
L 129.554523 305.641375 
" style="fill: none; stroke: #000000; stroke-width: 0.8; stroke-linejoin: miter; stroke-linecap: square"/>
   </g>
   <g id="PathCollection_1">
    <defs>
     <path id="C0_0_339ad858eb" d="M 0 2.5 
C 0.663008 2.5 1.29895 2.236584 1.767767 1.767767 
C 2.236584 1.29895 2.5 0.663008 2.5 -0 
C 2.5 -0.663008 2.236584 -1.29895 1.767767 -1.767767 
C 1.29895 -2.236584 0.663008 -2.5 0 -2.5 
C -0.663008 -2.5 -1.29895 -2.236584 -1.767767 -1.767767 
C -2.236584 -1.29895 -2.5 -0.663008 -2.5 0 
C -2.5 0.663008 -2.236584 1.29895 -1.767767 1.767767 
C -1.29895 2.236584 -0.663008 2.5 0 2.5 
z
"/>
    </defs>
    <use xlink:href="#C0_0_339ad858eb" x="70.341751" y="266.589061" style="fill: #8da0cb"/>
    <use xlink:href="#C0_0_339ad858eb" x="70.580956" y="295.641375" style="fill: #8da0cb"/>
    <use xlink:href="#C0_0_339ad858eb" x="70.730164" y="249.049022" style="fill: #8da0cb"/>
    <use xlink:href="#C0_0_339ad858eb" x="70.2151" y="215.692477" style="fill: #8da0cb"/>
    <use xlink:href="#C0_0_339ad858eb" x="74.272096" y="262.229815" style="fill: #8da0cb"/>
    <use xlink:href="#C0_0_339ad858eb" x="74.963561" y="253.389958" style="fill: #8da0cb"/>
    <use xlink:href="#C0_0_339ad858eb" x="74.527884" y="257.195314" style="fill: #8da0cb"/>
    <use xlink:href="#C0_0_339ad858eb" x="75.482278" y="246.919229" style="fill: #8da0cb"/>
    <use xlink:href="#C0_0_339ad858eb" x="73.463832" y="240.092806" style="fill: #8da0cb"/>
    <use xlink:href="#C0_0_339ad858eb" x="75.857761" y="266.411965" style="fill: #8da0cb"/>
   </g>
   <g id="PathCollection_2">
    <defs>
     <path id="C1_0_74ef8d3fe1" d="M 0 2.5 
C 0.663008 2.5 1.29895 2.236584 1.767767 1.767767 
C 2.236584 1.29895 2.5 0.663008 2.5 -0 
C 2.5 -0.663008 2.236584 -1.29895 1.767767 -1.767767 
C 1.29895 -2.236584 0.663008 -2.5 0 -2.5 
C -0.663008 -2.5 -1.29895 -2.236584 -1.767767 -1.767767 
C -2.236584 -1.29895 -2.5 -0.663008 -2.5 0 
C -2.5 0.663008 -2.236584 1.29895 -1.767767 1.767767 
C -1.29895 2.236584 -0.663008 2.5 0 2.5 
z
"/>
    </defs>
    <use xlink:href="#C1_0_74ef8d3fe1" x="111.656182" y="195.847002" style="fill: #e78ac3"/>
    <use xlink:href="#C1_0_74ef8d3fe1" x="113.862628" y="238.287917" style="fill: #e78ac3"/>
    <use xlink:href="#C1_0_74ef8d3fe1" x="109.770761" y="234.379077" style="fill: #e78ac3"/>
    <use xlink:href="#C1_0_74ef8d3fe1" x="111.835161" y="223.763262" style="fill: #e78ac3"/>
    <use xlink:href="#C1_0_74ef8d3fe1" x="109.134858" y="209.985133" style="fill: #e78ac3"/>
    <use xlink:href="#C1_0_74ef8d3fe1" x="107.28083" y="220.468954" style="fill: #e78ac3"/>
    <use xlink:href="#C1_0_74ef8d3fe1" x="108.259991" y="209.326102" style="fill: #e78ac3"/>
    <use xlink:href="#C1_0_74ef8d3fe1" x="113.077197" y="206.997696" style="fill: #e78ac3"/>
    <use xlink:href="#C1_0_74ef8d3fe1" x="109.454889" y="223.849191" style="fill: #e78ac3"/>
    <use xlink:href="#C1_0_74ef8d3fe1" x="112.092607" y="237.465475" style="fill: #e78ac3"/>
   </g>
  </g>
  <g id="axes_4">
   <g id="patch_14">
    <path d="M 185.42894 295.641375 
L 334.2 295.641375 
L 334.2 157.074383 
L 185.42894 157.074383 
z
" style="fill: #ffffff"/>
   </g>
   <g id="PolyCollection_7">
    <defs>
     <path id="mc87417395c" d="M 185.42894 -121.522046 
L 185.42894 -133.434399 
L 192.737706 -155.411206 
L 200.046471 -160.500903 
L 214.664003 -163.045751 
L 229.281534 -169.407872 
L 243.899066 -174.497569 
L 258.516597 -171.95272 
L 273.134129 -174.497569 
L 287.75166 -177.042417 
L 302.369192 -174.497569 
L 316.986723 -178.314841 
L 331.604255 -177.042417 
L 331.604255 -169.407872 
L 331.604255 -169.407872 
L 316.986723 -166.863024 
L 302.369192 -165.590599 
L 287.75166 -168.135448 
L 273.134129 -164.318175 
L 258.516597 -161.137115 
L 243.899066 -160.500903 
L 229.281534 -159.86151 
L 214.664003 -155.411206 
L 200.046471 -147.776661 
L 192.737706 -136.961056 
L 185.42894 -121.522046 
z
" style="stroke: #8da0cb; stroke-opacity: 0.2"/>
    </defs>
    <g clip-path="url(#p4e9bc9f51b)">
     <use xlink:href="#mc87417395c" x="0" y="345.441375" style="fill: #8da0cb; fill-opacity: 0.2; stroke: #8da0cb; stroke-opacity: 0.2"/>
    </g>
   </g>
   <g id="PolyCollection_8">
    <defs>
     <path id="m540b6238b7" d="M 185.42894 -50.750391 
L 185.42894 -53.601564 
L 192.737706 -110.87636 
L 200.046471 -137.597268 
L 214.664003 -151.593934 
L 229.281534 -159.228479 
L 243.899066 -159.228479 
L 258.516597 -169.407872 
L 273.134129 -168.135448 
L 287.75166 -169.407872 
L 302.369192 -174.497569 
L 316.986723 -170.680296 
L 331.604255 -175.769993 
L 331.604255 -161.773327 
L 331.604255 -161.773327 
L 316.986723 -166.863024 
L 302.369192 -161.773327 
L 287.75166 -160.500903 
L 273.134129 -160.500903 
L 258.516597 -154.138782 
L 243.899066 -155.411206 
L 229.281534 -150.321509 
L 214.664003 -146.504237 
L 200.046471 -121.055754 
L 192.737706 -105.786663 
L 185.42894 -50.750391 
z
" style="stroke: #e78ac3; stroke-opacity: 0.2"/>
    </defs>
    <g clip-path="url(#p4e9bc9f51b)">
     <use xlink:href="#m540b6238b7" x="0" y="345.441375" style="fill: #e78ac3; fill-opacity: 0.2; stroke: #e78ac3; stroke-opacity: 0.2"/>
    </g>
   </g>
   <g id="PolyCollection_9">
    <defs>
     <path id="m6b3a3ace93" d="M 185.42894 -65.006254 
L 185.42894 -73.559772 
L 192.737706 -117.238481 
L 200.046471 -140.778328 
L 214.664003 -160.500903 
L 229.281534 -169.407872 
L 243.899066 -175.769993 
L 258.516597 -170.680296 
L 273.134129 -175.133781 
L 287.75166 -177.042417 
L 302.369192 -179.587265 
L 316.986723 -179.587265 
L 331.604255 -178.314841 
L 331.604255 -172.588932 
L 331.604255 -172.588932 
L 316.986723 -170.680296 
L 302.369192 -168.135448 
L 287.75166 -164.314994 
L 273.134129 -160.500903 
L 258.516597 -160.500903 
L 243.899066 -157.956054 
L 229.281534 -156.68363 
L 214.664003 -149.049085 
L 200.046471 -128.690299 
L 192.737706 -107.059088 
L 185.42894 -65.006254 
z
" style="stroke: #e5c494; stroke-opacity: 0.2"/>
    </defs>
    <g clip-path="url(#p4e9bc9f51b)">
     <use xlink:href="#m6b3a3ace93" x="0" y="345.441375" style="fill: #e5c494; fill-opacity: 0.2; stroke: #e5c494; stroke-opacity: 0.2"/>
    </g>
   </g>
   <g id="PolyCollection_10">
    <defs>
     <path id="m7abeef5906" d="M 185.42894 -64.055863 
L 185.42894 -66.907036 
L 192.737706 -71.431211 
L 200.046471 -75.884695 
L 214.664003 -81.610604 
L 229.281534 -92.42621 
L 243.899066 -103.241815 
L 258.516597 -118.510905 
L 273.134129 -127.417874 
L 287.75166 -138.869692 
L 302.369192 -143.959389 
L 316.986723 -151.593934 
L 331.604255 -155.411206 
L 331.604255 -142.686964 
L 331.604255 -142.686964 
L 316.986723 -137.597268 
L 302.369192 -118.510905 
L 287.75166 -122.328178 
L 273.134129 -110.87636 
L 258.516597 -105.786663 
L 243.899066 -88.608937 
L 229.281534 -82.246816 
L 214.664003 -73.976059 
L 200.046471 -70.158787 
L 192.737706 -63.790304 
L 185.42894 -64.055863 
z
" style="stroke: #3f784c; stroke-opacity: 0.2"/>
    </defs>
    <g clip-path="url(#p4e9bc9f51b)">
     <use xlink:href="#m7abeef5906" x="0" y="345.441375" style="fill: #3f784c; fill-opacity: 0.2; stroke: #3f784c; stroke-opacity: 0.2"/>
    </g>
   </g>
   <g id="matplotlib.axis_7">
    <g id="xtick_13">
     <g id="line2d_48">
      <g>
       <use xlink:href="#ma7924e5b42" x="185.42894" y="305.641375" style="stroke: #000000; stroke-width: 0.8"/>
      </g>
     </g>
     <g id="text_35">
      <text style="font: 6px 'Arial', sans-serif; text-anchor: middle" x="185.42894" y="316.936063" transform="rotate(-0 185.42894 316.936063)">0.0</text>
     </g>
    </g>
    <g id="xtick_14">
     <g id="line2d_49">
      <g>
       <use xlink:href="#ma7924e5b42" x="222.621705" y="305.641375" style="stroke: #000000; stroke-width: 0.8"/>
      </g>
     </g>
     <g id="text_36">
      <text style="font: 6px 'Arial', sans-serif; text-anchor: middle" x="222.621705" y="316.936063" transform="rotate(-0 222.621705 316.936063)">0.4</text>
     </g>
    </g>
    <g id="xtick_15">
     <g id="line2d_50">
      <g>
       <use xlink:href="#ma7924e5b42" x="259.81447" y="305.641375" style="stroke: #000000; stroke-width: 0.8"/>
      </g>
     </g>
     <g id="text_37">
      <text style="font: 6px 'Arial', sans-serif; text-anchor: middle" x="259.81447" y="316.936063" transform="rotate(-0 259.81447 316.936063)">0.8</text>
     </g>
    </g>
    <g id="xtick_16">
     <g id="line2d_51">
      <g>
       <use xlink:href="#ma7924e5b42" x="297.007235" y="305.641375" style="stroke: #000000; stroke-width: 0.8"/>
      </g>
     </g>
     <g id="text_38">
      <text style="font: 6px 'Arial', sans-serif; text-anchor: middle" x="297.007235" y="316.936063" transform="rotate(-0 297.007235 316.936063)">1.2</text>
     </g>
    </g>
    <g id="xtick_17">
     <g id="line2d_52">
      <g>
       <use xlink:href="#ma7924e5b42" x="334.2" y="305.641375" style="stroke: #000000; stroke-width: 0.8"/>
      </g>
     </g>
     <g id="text_39">
      <text style="font: 6px 'Arial', sans-serif; text-anchor: middle" x="334.2" y="316.936063" transform="rotate(-0 334.2 316.936063)">1.6</text>
     </g>
    </g>
    <g id="text_40">
     <text style="font: 6px 'Arial', sans-serif; text-anchor: middle" x="259.81447" y="326.496375" transform="rotate(-0 259.81447 326.496375)">Hours of training data</text>
    </g>
   </g>
   <g id="matplotlib.axis_8">
    <g id="ytick_13">
     <g id="line2d_53">
      <g>
       <use xlink:href="#mbd060c435f" x="175.42894" y="295.641375" style="stroke: #000000; stroke-width: 0.8"/>
      </g>
     </g>
     <g id="text_41">
      <text style="font: 6px 'Arial', sans-serif; text-anchor: end" x="168.42894" y="297.788719" transform="rotate(-0 168.42894 297.788719)">0</text>
     </g>
    </g>
    <g id="ytick_14">
     <g id="line2d_54">
      <g>
       <use xlink:href="#mbd060c435f" x="175.42894" y="249.452378" style="stroke: #000000; stroke-width: 0.8"/>
      </g>
     </g>
     <g id="text_42">
      <text style="font: 6px 'Arial', sans-serif; text-anchor: end" x="168.42894" y="251.599721" transform="rotate(-0 168.42894 251.599721)">30</text>
     </g>
    </g>
    <g id="ytick_15">
     <g id="line2d_55">
      <g>
       <use xlink:href="#mbd060c435f" x="175.42894" y="203.26338" style="stroke: #000000; stroke-width: 0.8"/>
      </g>
     </g>
     <g id="text_43">
      <text style="font: 6px 'Arial', sans-serif; text-anchor: end" x="168.42894" y="205.410724" transform="rotate(-0 168.42894 205.410724)">60</text>
     </g>
    </g>
    <g id="ytick_16">
     <g id="line2d_56">
      <g>
       <use xlink:href="#mbd060c435f" x="175.42894" y="157.074383" style="stroke: #000000; stroke-width: 0.8"/>
      </g>
     </g>
     <g id="text_44">
      <text style="font: 6px 'Arial', sans-serif; text-anchor: end" x="168.42894" y="159.221727" transform="rotate(-0 168.42894 159.221727)">90</text>
     </g>
    </g>
    <g id="text_45">
     <text style="font: 6px 'Arial', sans-serif; text-anchor: middle" x="156.493002" y="226.357879" transform="rotate(-90 156.493002 226.357879)">Classification accuracy (%)</text>
    </g>
   </g>
   <g id="line2d_57">
    <path d="M 185.42894 213.432563 
L 192.737706 203.390623 
L 200.046471 193.211229 
L 214.664003 184.30426 
L 229.281534 183.668048 
L 243.899066 173.488655 
L 258.516597 177.305927 
L 273.134129 177.305927 
L 287.75166 174.761079 
L 302.369192 174.124867 
L 316.986723 174.761079 
L 331.604255 172.21623 
" clip-path="url(#p4e9bc9f51b)" style="fill: none; stroke: #8da0cb; stroke-width: 2; stroke-linecap: square"/>
   </g>
   <g id="line2d_58">
    <path d="M 185.42894 293.740593 
L 192.737706 239.654712 
L 200.046471 212.933804 
L 214.664003 193.847441 
L 229.281534 192.575017 
L 243.899066 188.757745 
L 258.516597 187.485321 
L 273.134129 178.578351 
L 287.75166 178.578351 
L 302.369192 181.1232 
L 316.986723 178.578351 
L 331.604255 172.21623 
" clip-path="url(#p4e9bc9f51b)" style="fill: none; stroke: #e78ac3; stroke-width: 2; stroke-linecap: square"/>
   </g>
   <g id="line2d_59">
    <path d="M 185.42894 278.428084 
L 192.737706 232.020166 
L 200.046471 210.388956 
L 214.664003 192.575017 
L 229.281534 183.031836 
L 243.899066 179.850776 
L 258.516597 179.850776 
L 273.134129 177.305927 
L 287.75166 173.488655 
L 302.369192 172.852443 
L 316.986723 172.852443 
L 331.604255 170.943806 
" clip-path="url(#p4e9bc9f51b)" style="fill: none; stroke: #e5c494; stroke-width: 2; stroke-linecap: square"/>
   </g>
   <g id="line2d_60">
    <path d="M 185.42894 279.48473 
L 192.737706 278.463649 
L 200.046471 270.829104 
L 214.664003 267.648043 
L 229.281534 258.741074 
L 243.899066 249.197893 
L 258.516597 230.747742 
L 273.134129 226.294258 
L 287.75166 216.114864 
L 302.369192 208.480319 
L 316.986723 206.571683 
L 331.604255 197.028502 
" clip-path="url(#p4e9bc9f51b)" style="fill: none; stroke: #3f784c; stroke-width: 2; stroke-linecap: square"/>
   </g>
   <g id="line2d_61">
    <path d="M 185.42894 280.245043 
L 334.2 280.245043 
" clip-path="url(#p4e9bc9f51b)" style="fill: none; stroke-dasharray: 5.55,2.4; stroke-dashoffset: 0; stroke: #000000; stroke-width: 1.5"/>
   </g>
   <g id="patch_15">
    <path d="M 175.42894 295.641375 
L 175.42894 157.074383 
" style="fill: none; stroke: #000000; stroke-width: 0.8; stroke-linejoin: miter; stroke-linecap: square"/>
   </g>
   <g id="patch_16">
    <path d="M 185.42894 305.641375 
L 334.2 305.641375 
" style="fill: none; stroke: #000000; stroke-width: 0.8; stroke-linejoin: miter; stroke-linecap: square"/>
   </g>
   <g id="legend_2">
    <g id="patch_17">
     <path d="M 272.218125 292.641375 
L 330 292.641375 
Q 331.2 292.641375 331.2 291.441375 
L 331.2 258.092625 
Q 331.2 256.892625 330 256.892625 
L 272.218125 256.892625 
Q 271.018125 256.892625 271.018125 258.092625 
L 271.018125 291.441375 
Q 271.018125 292.641375 272.218125 292.641375 
z
" style="fill: #ffffff; opacity: 0.8; stroke: #cccccc; stroke-linejoin: miter"/>
    </g>
    <g id="line2d_62">
     <path d="M 273.418125 261.487313 
L 279.418125 261.487313 
L 285.418125 261.487313 
" style="fill: none; stroke: #8da0cb; stroke-width: 2; stroke-linecap: square"/>
    </g>
    <g id="text_46">
     <text style="font: 6px 'Arial', sans-serif; text-anchor: start" x="290.218125" y="263.587313" transform="rotate(-0 290.218125 263.587313)">Acou. similar</text>
    </g>
    <g id="line2d_63">
     <path d="M 273.418125 269.9745 
L 279.418125 269.9745 
L 285.418125 269.9745 
" style="fill: none; stroke: #e78ac3; stroke-width: 2; stroke-linecap: square"/>
    </g>
    <g id="text_47">
     <text style="font: 6px 'Arial', sans-serif; text-anchor: start" x="290.218125" y="272.0745" transform="rotate(-0 290.218125 272.0745)">Acou. different</text>
    </g>
    <g id="line2d_64">
     <path d="M 273.418125 278.461688 
L 279.418125 278.461688 
L 285.418125 278.461688 
" style="fill: none; stroke: #e5c494; stroke-width: 2; stroke-linecap: square"/>
    </g>
    <g id="text_48">
     <text style="font: 6px 'Arial', sans-serif; text-anchor: start" x="290.218125" y="280.561688" transform="rotate(-0 290.218125 280.561688)">Sem. similar</text>
    </g>
    <g id="line2d_65">
     <path d="M 273.418125 286.948875 
L 279.418125 286.948875 
L 285.418125 286.948875 
" style="fill: none; stroke: #3f784c; stroke-width: 2; stroke-linecap: square"/>
    </g>
    <g id="text_49">
     <text style="font: 6px 'Arial', sans-serif; text-anchor: start" x="290.218125" y="289.048875" transform="rotate(-0 290.218125 289.048875)">No pretrain</text>
    </g>
   </g>
  </g>
 </g>
 <defs>
  <clipPath id="pb9387df4bf">
   <rect x="55.2" y="18.441375" width="111.562792" height="79.152846"/>
  </clipPath>
  <clipPath id="pdc75aa87d7">
   <rect x="222.637208" y="18.441375" width="111.562792" height="79.152846"/>
  </clipPath>
  <clipPath id="p9f5a2e21f0">
   <rect x="55.2" y="157.074383" width="74.354523" height="138.566992"/>
  </clipPath>
  <clipPath id="p4e9bc9f51b">
   <rect x="185.42894" y="157.074383" width="148.77106" height="138.566992"/>
  </clipPath>
 </defs>
</svg>
