<?xml version="1.0" encoding="utf-8" standalone="no"?>
<!DOCTYPE svg PUBLIC "-//W3C//DTD SVG 1.1//EN"
  "http://www.w3.org/Graphics/SVG/1.1/DTD/svg11.dtd">
<svg xmlns:xlink="http://www.w3.org/1999/xlink" width="345.07pt" height="335.847344pt" viewBox="0 0 345.07 335.847344" xmlns="http://www.w3.org/2000/svg" version="1.1">
 <metadata>
  <rdf:RDF xmlns:dc="http://purl.org/dc/elements/1.1/" xmlns:cc="http://creativecommons.org/ns#" xmlns:rdf="http://www.w3.org/1999/02/22-rdf-syntax-ns#">
   <cc:Work>
    <dc:type rdf:resource="http://purl.org/dc/dcmitype/StillImage"/>
    <dc:date>2024-03-26T16:32:30.913141</dc:date>
    <dc:format>image/svg+xml</dc:format>
    <dc:creator>
     <cc:Agent>
      <dc:title>Matplotlib v3.6.2, https://matplotlib.org/</dc:title>
     </cc:Agent>
    </dc:creator>
   </cc:Work>
  </rdf:RDF>
 </metadata>
 <defs>
  <style type="text/css">*{stroke-linejoin: round; stroke-linecap: butt}</style>
 </defs>
 <g id="figure_1">
  <g id="patch_1">
   <path d="M 0 335.847344 
L 345.07 335.847344 
L 345.07 0 
L 0 0 
z
" style="fill: #ffffff"/>
  </g>
  <g id="axes_1">
   <g id="patch_2">
    <path d="M 54.7 88.50019 
L 166.262792 88.50019 
L 166.262792 9.347344 
L 54.7 9.347344 
z
" style="fill: #ffffff"/>
   </g>
   <g id="PolyCollection_1">
    <defs>
     <path id="m50dd6a598c" d="M 60.203183 -253.248901 
L 60.203183 -256.026194 
L 65.706367 -257.067679 
L 76.712733 -265.746719 
L 87.7191 -288.312223 
L 98.725467 -296.991264 
L 109.731833 -304.8024 
L 120.7382 -308.968339 
L 131.744567 -312.439955 
L 142.750933 -315.390829 
L 153.7573 -316.432313 
L 164.763667 -318.515283 
L 164.763667 -311.572051 
L 164.763667 -311.572051 
L 153.7573 -309.836243 
L 142.750933 -308.447597 
L 131.744567 -304.97598 
L 120.7382 -301.851526 
L 109.731833 -297.338425 
L 98.725467 -292.478163 
L 87.7191 -269.912658 
L 76.712733 -260.539295 
L 65.706367 -254.290386 
L 60.203183 -253.248901 
z
" style="stroke: #3f784c; stroke-opacity: 0.2"/>
    </defs>
    <g clip-path="url(#p87a031cad1)">
     <use xlink:href="#m50dd6a598c" x="0" y="335.847344" style="fill: #3f784c; fill-opacity: 0.2; stroke: #3f784c; stroke-opacity: 0.2"/>
    </g>
   </g>
   <g id="PolyCollection_2">
    <defs>
     <path id="m23e53d9ddf" d="M 60.203183 -293.172486 
L 60.203183 -298.553491 
L 65.706367 -311.224889 
L 76.712733 -315.73799 
L 87.7191 -317.473798 
L 98.725467 -319.90393 
L 109.731833 -322.334061 
L 120.7382 -323.722707 
L 131.744567 -324.764192 
L 142.750933 -325.458515 
L 153.7573 -325.111354 
L 164.763667 -325.112221 
L 164.763667 -320.945414 
L 164.763667 -320.945414 
L 153.7573 -321.639738 
L 142.750933 -320.945414 
L 131.744567 -321.639738 
L 120.7382 -317.82096 
L 109.731833 -316.779475 
L 98.725467 -314.696505 
L 87.7191 -313.307859 
L 76.712733 -310.530566 
L 65.706367 -303.760915 
L 60.203183 -293.172486 
z
" style="stroke: #c17817; stroke-opacity: 0.2"/>
    </defs>
    <g clip-path="url(#p87a031cad1)">
     <use xlink:href="#m23e53d9ddf" x="0" y="335.847344" style="fill: #c17817; fill-opacity: 0.2; stroke: #c17817; stroke-opacity: 0.2"/>
    </g>
   </g>
   <g id="PolyCollection_3">
    <defs>
     <path id="m737e4f69ad" d="M 60.203183 -290.742355 
L 60.203183 -297.685587 
L 65.706367 -304.628819 
L 76.712733 -311.224889 
L 87.7191 -315.73799 
L 98.725467 -319.556768 
L 109.731833 -323.375546 
L 120.7382 -321.813318 
L 131.744567 -324.069869 
L 142.750933 -326.5 
L 153.7573 -325.979258 
L 164.763667 -325.111354 
L 164.763667 -322.334061 
L 164.763667 -322.334061 
L 153.7573 -319.556768 
L 142.750933 -318.515283 
L 131.744567 -318.515283 
L 120.7382 -318.168121 
L 109.731833 -314.349344 
L 98.725467 -315.043667 
L 87.7191 -312.960697 
L 76.712733 -308.794758 
L 65.706367 -298.37991 
L 60.203183 -290.742355 
z
" style="stroke: #b20d30; stroke-opacity: 0.2"/>
    </defs>
    <g clip-path="url(#p87a031cad1)">
     <use xlink:href="#m737e4f69ad" x="0" y="335.847344" style="fill: #b20d30; fill-opacity: 0.2; stroke: #b20d30; stroke-opacity: 0.2"/>
    </g>
   </g>
   <g id="matplotlib.axis_1">
    <g id="xtick_1">
     <g id="line2d_1">
      <defs>
       <path id="m5fd7d3e10e" d="M 0 0 
L 0 3.5 
" style="stroke: #000000; stroke-width: 0.8"/>
      </defs>
      <g>
       <use xlink:href="#m5fd7d3e10e" x="54.7" y="98.50019" style="stroke: #000000; stroke-width: 0.8"/>
      </g>
     </g>
     <g id="text_1">
      <text style="font: 6px 'Arial', sans-serif; text-anchor: middle" x="54.7" y="109.794877" transform="rotate(-0 54.7 109.794877)">0</text>
     </g>
    </g>
    <g id="xtick_2">
     <g id="line2d_2">
      <g>
       <use xlink:href="#m5fd7d3e10e" x="82.590698" y="98.50019" style="stroke: #000000; stroke-width: 0.8"/>
      </g>
     </g>
     <g id="text_2">
      <text style="font: 6px 'Arial', sans-serif; text-anchor: middle" x="82.590698" y="109.794877" transform="rotate(-0 82.590698 109.794877)">1</text>
     </g>
    </g>
    <g id="xtick_3">
     <g id="line2d_3">
      <g>
       <use xlink:href="#m5fd7d3e10e" x="110.481396" y="98.50019" style="stroke: #000000; stroke-width: 0.8"/>
      </g>
     </g>
     <g id="text_3">
      <text style="font: 6px 'Arial', sans-serif; text-anchor: middle" x="110.481396" y="109.794877" transform="rotate(-0 110.481396 109.794877)">2</text>
     </g>
    </g>
    <g id="xtick_4">
     <g id="line2d_4">
      <g>
       <use xlink:href="#m5fd7d3e10e" x="138.372094" y="98.50019" style="stroke: #000000; stroke-width: 0.8"/>
      </g>
     </g>
     <g id="text_4">
      <text style="font: 6px 'Arial', sans-serif; text-anchor: middle" x="138.372094" y="109.794877" transform="rotate(-0 138.372094 109.794877)">3</text>
     </g>
    </g>
    <g id="xtick_5">
     <g id="line2d_5">
      <g>
       <use xlink:href="#m5fd7d3e10e" x="166.262792" y="98.50019" style="stroke: #000000; stroke-width: 0.8"/>
      </g>
     </g>
     <g id="text_5">
      <text style="font: 6px 'Arial', sans-serif; text-anchor: middle" x="166.262792" y="109.794877" transform="rotate(-0 166.262792 109.794877)">4</text>
     </g>
    </g>
    <g id="text_6">
     <text style="font: 6px 'Arial', sans-serif; text-anchor: middle" x="110.481396" y="119.35519" transform="rotate(-0 110.481396 119.35519)">Hours of training data</text>
    </g>
   </g>
   <g id="matplotlib.axis_2">
    <g id="ytick_1">
     <g id="line2d_6">
      <defs>
       <path id="mea9f032d48" d="M 0 0 
L -3.5 0 
" style="stroke: #000000; stroke-width: 0.8"/>
      </defs>
      <g>
       <use xlink:href="#mea9f032d48" x="44.7" y="88.50019" style="stroke: #000000; stroke-width: 0.8"/>
      </g>
     </g>
     <g id="text_7">
      <text style="font: 6px 'Arial', sans-serif; text-anchor: end" x="37.7" y="90.647533" transform="rotate(-0 37.7 90.647533)">0</text>
     </g>
    </g>
    <g id="ytick_2">
     <g id="line2d_7">
      <g>
       <use xlink:href="#mea9f032d48" x="44.7" y="62.115908" style="stroke: #000000; stroke-width: 0.8"/>
      </g>
     </g>
     <g id="text_8">
      <text style="font: 6px 'Arial', sans-serif; text-anchor: end" x="37.7" y="64.263251" transform="rotate(-0 37.7 64.263251)">25</text>
     </g>
    </g>
    <g id="ytick_3">
     <g id="line2d_8">
      <g>
       <use xlink:href="#mea9f032d48" x="44.7" y="35.731626" style="stroke: #000000; stroke-width: 0.8"/>
      </g>
     </g>
     <g id="text_9">
      <text style="font: 6px 'Arial', sans-serif; text-anchor: end" x="37.7" y="37.878969" transform="rotate(-0 37.7 37.878969)">50</text>
     </g>
    </g>
    <g id="ytick_4">
     <g id="line2d_9">
      <g>
       <use xlink:href="#mea9f032d48" x="44.7" y="9.347344" style="stroke: #000000; stroke-width: 0.8"/>
      </g>
     </g>
     <g id="text_10">
      <text style="font: 6px 'Arial', sans-serif; text-anchor: end" x="37.7" y="11.494687" transform="rotate(-0 37.7 11.494687)">75</text>
     </g>
    </g>
    <g id="text_11">
     <text style="font: 6px 'Arial', sans-serif" transform="translate(19.259875 84.437204) rotate(-90)">Classification accuracy on </text>
     <text style="font: 6px 'Arial', sans-serif" transform="translate(25.764063 82.937204) rotate(-90)"> new Spanish test set (%)</text>
    </g>
   </g>
   <g id="line2d_10">
    <path d="M 60.203183 80.862634 
L 65.706367 80.515473 
L 76.712733 72.704337 
L 87.7191 53.784029 
L 98.725467 40.244727 
L 109.731833 34.51656 
L 120.7382 29.829878 
L 131.744567 26.531843 
L 142.750933 25.663939 
L 153.7573 21.671581 
L 164.763667 21.150838 
" clip-path="url(#p87a031cad1)" style="fill: none; stroke: #3f784c; stroke-width: 2; stroke-linecap: square"/>
   </g>
   <g id="line2d_11">
    <path d="M 60.203183 40.418307 
L 65.706367 29.691014 
L 76.712733 22.921363 
L 87.7191 20.213502 
L 98.725467 17.713938 
L 109.731833 16.25586 
L 120.7382 15.07551 
L 131.744567 12.506514 
L 142.750933 12.610663 
L 153.7573 12.437082 
L 164.763667 12.645379 
" clip-path="url(#p87a031cad1)" style="fill: none; stroke: #c17817; stroke-width: 1.5; stroke-linecap: square"/>
   </g>
   <g id="line2d_12">
    <path d="M 60.203183 41.563941 
L 65.706367 33.891669 
L 76.712733 25.906952 
L 87.7191 21.671581 
L 98.725467 18.790139 
L 109.731833 17.15848 
L 120.7382 16.012847 
L 131.744567 14.17289 
L 142.750933 14.242322 
L 153.7573 12.680095 
L 164.763667 12.159353 
" clip-path="url(#p87a031cad1)" style="fill: none; stroke: #b20d30; stroke-width: 1.5; stroke-linecap: square"/>
   </g>
   <g id="line2d_13">
    <path d="M 54.7 84.278705 
L 166.262792 84.278705 
" clip-path="url(#p87a031cad1)" style="fill: none; stroke-dasharray: 5.55,2.4; stroke-dashoffset: 0; stroke: #000000; stroke-width: 1.5"/>
   </g>
   <g id="patch_3">
    <path d="M 44.7 88.50019 
L 44.7 9.347344 
" style="fill: none; stroke: #000000; stroke-width: 0.8; stroke-linejoin: miter; stroke-linecap: square"/>
   </g>
   <g id="patch_4">
    <path d="M 54.7 98.50019 
L 166.262792 98.50019 
" style="fill: none; stroke: #000000; stroke-width: 0.8; stroke-linejoin: miter; stroke-linecap: square"/>
   </g>
   <g id="legend_1">
    <g id="patch_5">
     <path d="M 99.172479 85.50019 
L 162.062792 85.50019 
Q 163.262792 85.50019 163.262792 84.30019 
L 163.262792 59.29519 
Q 163.262792 58.09519 162.062792 58.09519 
L 99.172479 58.09519 
Q 97.972479 58.09519 97.972479 59.29519 
L 97.972479 84.30019 
Q 97.972479 85.50019 99.172479 85.50019 
z
" style="fill: #ffffff; opacity: 0.8; stroke: #cccccc; stroke-linejoin: miter"/>
    </g>
    <g id="line2d_14">
     <path d="M 100.372479 62.689877 
L 106.372479 62.689877 
L 112.372479 62.689877 
" style="fill: none; stroke: #3f784c; stroke-width: 2; stroke-linecap: square"/>
    </g>
    <g id="text_12">
     <text style="font: 6px 'Arial', sans-serif; text-anchor: start" x="117.172479" y="64.789877" transform="rotate(-0 117.172479 64.789877)">No pretrain</text>
    </g>
    <g id="line2d_15">
     <path d="M 100.372479 71.25019 
L 106.372479 71.25019 
L 112.372479 71.25019 
" style="fill: none; stroke: #c17817; stroke-width: 1.5; stroke-linecap: square"/>
    </g>
    <g id="text_13">
     <text style="font: 6px 'Arial', sans-serif; text-anchor: start" x="117.172479" y="73.35019" transform="rotate(-0 117.172479 73.35019)">Spanish pretrain</text>
    </g>
    <g id="line2d_16">
     <path d="M 100.372479 79.737377 
L 106.372479 79.737377 
L 112.372479 79.737377 
" style="fill: none; stroke: #b20d30; stroke-width: 1.5; stroke-linecap: square"/>
    </g>
    <g id="text_14">
     <text style="font: 6px 'Arial', sans-serif; text-anchor: start" x="117.172479" y="81.837377" transform="rotate(-0 117.172479 81.837377)">English pretrain</text>
    </g>
   </g>
  </g>
  <g id="axes_2">
   <g id="patch_6">
    <path d="M 222.137208 88.50019 
L 333.7 88.50019 
L 333.7 9.347344 
L 222.137208 9.347344 
z
" style="fill: #ffffff"/>
   </g>
   <g id="PolyCollection_4">
    <defs>
     <path id="md6216871ac" d="M 227.510235 -250.900593 
L 227.510235 -253.743344 
L 232.883262 -255.520063 
L 243.629315 -261.916253 
L 254.375369 -272.221225 
L 265.121422 -284.481476 
L 275.867476 -293.541857 
L 286.613529 -299.227358 
L 297.359583 -301.714765 
L 308.105636 -304.024501 
L 318.85169 -306.68958 
L 329.597743 -308.110955 
L 329.597743 -302.425453 
L 329.597743 -302.425453 
L 318.85169 -302.070109 
L 308.105636 -298.161327 
L 297.359583 -297.095295 
L 286.613529 -295.318576 
L 275.867476 -285.368948 
L 265.121422 -278.794198 
L 254.375369 -263.155514 
L 243.629315 -256.586095 
L 232.883262 -252.677312 
L 227.510235 -250.900593 
z
" style="stroke: #3f784c; stroke-opacity: 0.2"/>
    </defs>
    <g clip-path="url(#pf3b64d3d8a)">
     <use xlink:href="#md6216871ac" x="0" y="335.847344" style="fill: #3f784c; fill-opacity: 0.2; stroke: #3f784c; stroke-opacity: 0.2"/>
    </g>
   </g>
   <g id="PolyCollection_5">
    <defs>
     <path id="mf476041583" d="M 227.510235 -286.079635 
L 227.510235 -293.008841 
L 232.883262 -301.892437 
L 243.629315 -306.334236 
L 254.375369 -311.30905 
L 265.121422 -312.730425 
L 275.867476 -312.730425 
L 286.613529 -314.862488 
L 297.359583 -316.283864 
L 308.105636 -315.92852 
L 318.85169 -316.817768 
L 329.597743 -318.771271 
L 329.597743 -312.908097 
L 329.597743 -312.908097 
L 318.85169 -312.194744 
L 308.105636 -311.664394 
L 297.359583 -310.598362 
L 286.613529 -310.243018 
L 275.867476 -309.53233 
L 265.121422 -306.68958 
L 254.375369 -305.268204 
L 243.629315 -301.536205 
L 232.883262 -297.625646 
L 227.510235 -286.079635 
z
" style="stroke: #c17817; stroke-opacity: 0.2"/>
    </defs>
    <g clip-path="url(#pf3b64d3d8a)">
     <use xlink:href="#mf476041583" x="0" y="335.847344" style="fill: #c17817; fill-opacity: 0.2; stroke: #c17817; stroke-opacity: 0.2"/>
    </g>
   </g>
   <g id="PolyCollection_6">
    <defs>
     <path id="mc9bc0c917e" d="M 227.510235 -284.65826 
L 227.510235 -290.343762 
L 232.883262 -298.516671 
L 243.629315 -303.670933 
L 254.375369 -309.176987 
L 265.121422 -310.598362 
L 275.867476 -312.197409 
L 286.613529 -314.151801 
L 297.359583 -316.994552 
L 308.105636 -314.685705 
L 318.85169 -316.639208 
L 329.597743 -316.283864 
L 329.597743 -313.085769 
L 329.597743 -313.085769 
L 318.85169 -312.019738 
L 308.105636 -311.664394 
L 297.359583 -308.821643 
L 286.613529 -310.419802 
L 275.867476 -307.222595 
L 265.121422 -305.268204 
L 254.375369 -303.310259 
L 243.629315 -300.648734 
L 232.883262 -293.186513 
L 227.510235 -284.65826 
z
" style="stroke: #b20d30; stroke-opacity: 0.2"/>
    </defs>
    <g clip-path="url(#pf3b64d3d8a)">
     <use xlink:href="#mc9bc0c917e" x="0" y="335.847344" style="fill: #b20d30; fill-opacity: 0.2; stroke: #b20d30; stroke-opacity: 0.2"/>
    </g>
   </g>
   <g id="matplotlib.axis_3">
    <g id="xtick_6">
     <g id="line2d_17">
      <g>
       <use xlink:href="#m5fd7d3e10e" x="222.137208" y="98.50019" style="stroke: #000000; stroke-width: 0.8"/>
      </g>
     </g>
     <g id="text_15">
      <text style="font: 6px 'Arial', sans-serif; text-anchor: middle" x="222.137208" y="109.794877" transform="rotate(-0 222.137208 109.794877)">0</text>
     </g>
    </g>
    <g id="xtick_7">
     <g id="line2d_18">
      <g>
       <use xlink:href="#m5fd7d3e10e" x="250.027906" y="98.50019" style="stroke: #000000; stroke-width: 0.8"/>
      </g>
     </g>
     <g id="text_16">
      <text style="font: 6px 'Arial', sans-serif; text-anchor: middle" x="250.027906" y="109.794877" transform="rotate(-0 250.027906 109.794877)">1</text>
     </g>
    </g>
    <g id="xtick_8">
     <g id="line2d_19">
      <g>
       <use xlink:href="#m5fd7d3e10e" x="277.918604" y="98.50019" style="stroke: #000000; stroke-width: 0.8"/>
      </g>
     </g>
     <g id="text_17">
      <text style="font: 6px 'Arial', sans-serif; text-anchor: middle" x="277.918604" y="109.794877" transform="rotate(-0 277.918604 109.794877)">2</text>
     </g>
    </g>
    <g id="xtick_9">
     <g id="line2d_20">
      <g>
       <use xlink:href="#m5fd7d3e10e" x="305.809302" y="98.50019" style="stroke: #000000; stroke-width: 0.8"/>
      </g>
     </g>
     <g id="text_18">
      <text style="font: 6px 'Arial', sans-serif; text-anchor: middle" x="305.809302" y="109.794877" transform="rotate(-0 305.809302 109.794877)">3</text>
     </g>
    </g>
    <g id="xtick_10">
     <g id="line2d_21">
      <g>
       <use xlink:href="#m5fd7d3e10e" x="333.7" y="98.50019" style="stroke: #000000; stroke-width: 0.8"/>
      </g>
     </g>
     <g id="text_19">
      <text style="font: 6px 'Arial', sans-serif; text-anchor: middle" x="333.7" y="109.794877" transform="rotate(-0 333.7 109.794877)">4</text>
     </g>
    </g>
    <g id="text_20">
     <text style="font: 6px 'Arial', sans-serif; text-anchor: middle" x="277.918604" y="119.35519" transform="rotate(-0 277.918604 119.35519)">Hours of training data</text>
    </g>
   </g>
   <g id="matplotlib.axis_4">
    <g id="ytick_5">
     <g id="line2d_22">
      <g>
       <use xlink:href="#mea9f032d48" x="212.137208" y="88.50019" style="stroke: #000000; stroke-width: 0.8"/>
      </g>
     </g>
     <g id="text_21">
      <text style="font: 6px 'Arial', sans-serif; text-anchor: end" x="205.137208" y="90.647533" transform="rotate(-0 205.137208 90.647533)">0</text>
     </g>
    </g>
    <g id="ytick_6">
     <g id="line2d_23">
      <g>
       <use xlink:href="#mea9f032d48" x="212.137208" y="62.115908" style="stroke: #000000; stroke-width: 0.8"/>
      </g>
     </g>
     <g id="text_22">
      <text style="font: 6px 'Arial', sans-serif; text-anchor: end" x="205.137208" y="64.263251" transform="rotate(-0 205.137208 64.263251)">25</text>
     </g>
    </g>
    <g id="ytick_7">
     <g id="line2d_24">
      <g>
       <use xlink:href="#mea9f032d48" x="212.137208" y="35.731626" style="stroke: #000000; stroke-width: 0.8"/>
      </g>
     </g>
     <g id="text_23">
      <text style="font: 6px 'Arial', sans-serif; text-anchor: end" x="205.137208" y="37.878969" transform="rotate(-0 205.137208 37.878969)">50</text>
     </g>
    </g>
    <g id="ytick_8">
     <g id="line2d_25">
      <g>
       <use xlink:href="#mea9f032d48" x="212.137208" y="9.347344" style="stroke: #000000; stroke-width: 0.8"/>
      </g>
     </g>
     <g id="text_24">
      <text style="font: 6px 'Arial', sans-serif; text-anchor: end" x="205.137208" y="11.494687" transform="rotate(-0 205.137208 11.494687)">75</text>
     </g>
    </g>
    <g id="text_25">
     <text style="font: 6px 'Arial', sans-serif" transform="translate(186.697083 84.437204) rotate(-90)">Classification accuracy on </text>
     <text style="font: 6px 'Arial', sans-serif" transform="translate(193.201271 81.935485) rotate(-90)"> new English test set (%)</text>
    </g>
   </g>
   <g id="line2d_26">
    <path d="M 227.510235 82.99236 
L 232.883262 81.748656 
L 243.629315 76.240826 
L 254.375369 69.844637 
L 265.121422 54.387179 
L 275.867476 45.32591 
L 286.613529 38.574377 
L 297.359583 35.909298 
L 308.105636 34.487922 
L 318.85169 30.756812 
L 329.597743 29.513108 
" clip-path="url(#pf3b64d3d8a)" style="fill: none; stroke: #3f784c; stroke-width: 2; stroke-linecap: square"/>
   </g>
   <g id="line2d_27">
    <path d="M 227.510235 46.036598 
L 232.883262 35.838229 
L 243.629315 31.929446 
L 254.375369 27.66532 
L 265.121422 25.781998 
L 275.867476 24.715966 
L 286.613529 23.081384 
L 297.359583 22.72604 
L 308.105636 21.944284 
L 318.85169 21.624474 
L 329.597743 20.309702 
" clip-path="url(#pf3b64d3d8a)" style="fill: none; stroke: #c17817; stroke-width: 1.5; stroke-linecap: square"/>
   </g>
   <g id="line2d_28">
    <path d="M 227.510235 48.346333 
L 232.883262 39.569339 
L 243.629315 34.06151 
L 254.375369 29.477574 
L 265.121422 28.518145 
L 275.867476 25.533257 
L 286.613529 23.365659 
L 297.359583 23.436728 
L 308.105636 22.72604 
L 318.85169 21.26913 
L 329.597743 20.913787 
" clip-path="url(#pf3b64d3d8a)" style="fill: none; stroke: #b20d30; stroke-width: 1.5; stroke-linecap: square"/>
   </g>
   <g id="line2d_29">
    <path d="M 222.137208 84.278705 
L 333.7 84.278705 
" clip-path="url(#pf3b64d3d8a)" style="fill: none; stroke-dasharray: 5.55,2.4; stroke-dashoffset: 0; stroke: #000000; stroke-width: 1.5"/>
   </g>
   <g id="patch_7">
    <path d="M 212.137208 88.50019 
L 212.137208 9.347344 
" style="fill: none; stroke: #000000; stroke-width: 0.8; stroke-linejoin: miter; stroke-linecap: square"/>
   </g>
   <g id="patch_8">
    <path d="M 222.137208 98.50019 
L 333.7 98.50019 
" style="fill: none; stroke: #000000; stroke-width: 0.8; stroke-linejoin: miter; stroke-linecap: square"/>
   </g>
  </g>
  <g id="axes_3">
   <g id="patch_9">
    <path d="M 54.7 286.547344 
L 129.054523 286.547344 
L 129.054523 147.980352 
L 54.7 147.980352 
z
" style="fill: #ffffff"/>
   </g>
   <g id="patch_10">
    <path d="M 58.417726 256.272396 
L 88.159535 256.272396 
L 88.159535 238.357646 
L 58.417726 238.357646 
L 58.417726 256.272396 
z
" clip-path="url(#pbbe5a03444)" style="fill: #95a3c3; opacity: 0.3; stroke: #676767; stroke-width: 1.5; stroke-linejoin: miter"/>
   </g>
   <g id="patch_11">
    <path d="M 95.594988 222.652574 
L 125.336797 222.652574 
L 125.336797 200.396828 
L 95.594988 200.396828 
L 95.594988 222.652574 
z
" clip-path="url(#pbbe5a03444)" style="fill: #db96c0; opacity: 0.3; stroke: #676767; stroke-width: 1.5; stroke-linejoin: miter"/>
   </g>
   <g id="matplotlib.axis_5">
    <g id="xtick_11">
     <g id="line2d_30">
      <g>
       <use xlink:href="#m5fd7d3e10e" x="73.288631" y="296.547344" style="stroke: #000000; stroke-width: 0.8"/>
      </g>
     </g>
     <g id="text_26">
      <text style="font: 6px 'Arial', sans-serif" transform="translate(65.617537 307.842031)">Acou.</text>
      <text style="font: 6px 'Arial', sans-serif" transform="translate(64.62285 314.188156)">similar</text>
     </g>
    </g>
    <g id="xtick_12">
     <g id="line2d_31">
      <g>
       <use xlink:href="#m5fd7d3e10e" x="110.465892" y="296.547344" style="stroke: #000000; stroke-width: 0.8"/>
      </g>
     </g>
     <g id="text_27">
      <text style="font: 6px 'Arial', sans-serif" transform="translate(102.794799 307.842031)">Acou.</text>
      <text style="font: 6px 'Arial', sans-serif" transform="translate(99.679486 314.188156)">different</text>
     </g>
    </g>
    <g id="text_28">
     <text style="font: 6px 'Arial', sans-serif; text-anchor: middle" x="91.877262" y="323.675344" transform="rotate(-0 91.877262 323.675344)">paradigm</text>
    </g>
   </g>
   <g id="matplotlib.axis_6">
    <g id="ytick_9">
     <g id="line2d_32">
      <g>
       <use xlink:href="#mea9f032d48" x="44.7" y="286.547344" style="stroke: #000000; stroke-width: 0.8"/>
      </g>
     </g>
     <g id="text_29">
      <text style="font: 6px 'Arial', sans-serif; text-anchor: end" x="37.7" y="288.694688" transform="rotate(-0 37.7 288.694688)">0</text>
     </g>
    </g>
    <g id="ytick_10">
     <g id="line2d_33">
      <g>
       <use xlink:href="#mea9f032d48" x="44.7" y="240.358346" style="stroke: #000000; stroke-width: 0.8"/>
      </g>
     </g>
     <g id="text_30">
      <text style="font: 6px 'Arial', sans-serif; text-anchor: end" x="37.7" y="242.50569" transform="rotate(-0 37.7 242.50569)">5</text>
     </g>
    </g>
    <g id="ytick_11">
     <g id="line2d_34">
      <g>
       <use xlink:href="#mea9f032d48" x="44.7" y="194.169349" style="stroke: #000000; stroke-width: 0.8"/>
      </g>
     </g>
     <g id="text_31">
      <text style="font: 6px 'Arial', sans-serif; text-anchor: end" x="37.7" y="196.316693" transform="rotate(-0 37.7 196.316693)">10</text>
     </g>
    </g>
    <g id="ytick_12">
     <g id="line2d_35">
      <g>
       <use xlink:href="#mea9f032d48" x="44.7" y="147.980352" style="stroke: #000000; stroke-width: 0.8"/>
      </g>
     </g>
     <g id="text_32">
      <text style="font: 6px 'Arial', sans-serif; text-anchor: end" x="37.7" y="150.127695" transform="rotate(-0 37.7 150.127695)">15</text>
     </g>
    </g>
    <g id="text_33">
     <text style="font: 6px 'Arial', sans-serif" transform="translate(19.417938 266.607285) rotate(-90)">Paired mel-cepstral distortion (MCD) </text>
     <text style="font: 6px 'Arial', sans-serif" transform="translate(25.834375 231.102754) rotate(-90)"> to test set</text>
    </g>
   </g>
   <g id="line2d_36">
    <path d="M 73.288631 256.272396 
L 73.288631 257.49503 
" style="fill: none; stroke: #676767; stroke-width: 1.5; stroke-linecap: square"/>
   </g>
   <g id="line2d_37">
    <path d="M 73.288631 238.357646 
L 73.288631 230.998775 
" style="fill: none; stroke: #676767; stroke-width: 1.5; stroke-linecap: square"/>
   </g>
   <g id="line2d_38">
    <path d="M 65.853178 257.49503 
L 80.724083 257.49503 
" style="fill: none; stroke: #676767; stroke-width: 1.5; stroke-linecap: square"/>
   </g>
   <g id="line2d_39">
    <path d="M 65.853178 230.998775 
L 80.724083 230.998775 
" style="fill: none; stroke: #676767; stroke-width: 1.5; stroke-linecap: square"/>
   </g>
   <g id="line2d_40">
    <defs>
     <path id="m5344608c37" d="M -0 3.535534 
L 2.12132 0 
L -0 -3.535534 
L -2.12132 -0 
z
" style="stroke: #676767; stroke-linejoin: miter"/>
    </defs>
    <g>
     <use xlink:href="#m5344608c37" x="73.288631" y="286.547344" style="fill: #676767; stroke: #676767; stroke-linejoin: miter"/>
     <use xlink:href="#m5344608c37" x="73.288631" y="206.598446" style="fill: #676767; stroke: #676767; stroke-linejoin: miter"/>
    </g>
   </g>
   <g id="line2d_41">
    <path d="M 110.465892 222.652574 
L 110.465892 229.193886 
" style="fill: none; stroke: #676767; stroke-width: 1.5; stroke-linecap: square"/>
   </g>
   <g id="line2d_42">
    <path d="M 110.465892 200.396828 
L 110.465892 186.752971 
" style="fill: none; stroke: #676767; stroke-width: 1.5; stroke-linecap: square"/>
   </g>
   <g id="line2d_43">
    <path d="M 103.03044 229.193886 
L 117.901345 229.193886 
" style="fill: none; stroke: #676767; stroke-width: 1.5; stroke-linecap: square"/>
   </g>
   <g id="line2d_44">
    <path d="M 103.03044 186.752971 
L 117.901345 186.752971 
" style="fill: none; stroke: #676767; stroke-width: 1.5; stroke-linecap: square"/>
   </g>
   <g id="line2d_45"/>
   <g id="line2d_46">
    <path d="M 58.417726 246.198604 
L 88.159535 246.198604 
" style="fill: none; stroke: #676767; stroke-width: 1.5; stroke-linecap: square"/>
   </g>
   <g id="line2d_47">
    <path d="M 95.594988 213.022077 
L 125.336797 213.022077 
" style="fill: none; stroke: #676767; stroke-width: 1.5; stroke-linecap: square"/>
   </g>
   <g id="patch_12">
    <path d="M 44.7 286.547344 
L 44.7 147.980352 
" style="fill: none; stroke: #000000; stroke-width: 0.8; stroke-linejoin: miter; stroke-linecap: square"/>
   </g>
   <g id="patch_13">
    <path d="M 54.7 296.547344 
L 129.054523 296.547344 
" style="fill: none; stroke: #000000; stroke-width: 0.8; stroke-linejoin: miter; stroke-linecap: square"/>
   </g>
   <g id="PathCollection_1">
    <defs>
     <path id="C0_0_19119058e6" d="M 0 2.5 
C 0.663008 2.5 1.29895 2.236584 1.767767 1.767767 
C 2.236584 1.29895 2.5 0.663008 2.5 -0 
C 2.5 -0.663008 2.236584 -1.29895 1.767767 -1.767767 
C 1.29895 -2.236584 0.663008 -2.5 0 -2.5 
C -0.663008 -2.5 -1.29895 -2.236584 -1.767767 -1.767767 
C -2.236584 -1.29895 -2.5 -0.663008 -2.5 0 
C -2.5 0.663008 -2.236584 1.29895 -1.767767 1.767767 
C -1.29895 2.236584 -0.663008 2.5 0 2.5 
z
"/>
    </defs>
    <use xlink:href="#C0_0_19119058e6" x="76.399269" y="257.49503" style="fill: #8da0cb"/>
    <use xlink:href="#C0_0_19119058e6" x="76.726396" y="286.547344" style="fill: #8da0cb"/>
    <use xlink:href="#C0_0_19119058e6" x="75.208922" y="239.954991" style="fill: #8da0cb"/>
    <use xlink:href="#C0_0_19119058e6" x="71.314155" y="206.598446" style="fill: #8da0cb"/>
    <use xlink:href="#C0_0_19119058e6" x="74.102839" y="253.135783" style="fill: #8da0cb"/>
    <use xlink:href="#C0_0_19119058e6" x="71.024018" y="244.295926" style="fill: #8da0cb"/>
    <use xlink:href="#C0_0_19119058e6" x="73.632999" y="248.101283" style="fill: #8da0cb"/>
    <use xlink:href="#C0_0_19119058e6" x="73.984362" y="237.825198" style="fill: #8da0cb"/>
    <use xlink:href="#C0_0_19119058e6" x="71.741063" y="230.998775" style="fill: #8da0cb"/>
    <use xlink:href="#C0_0_19119058e6" x="75.977471" y="257.317934" style="fill: #8da0cb"/>
   </g>
   <g id="PathCollection_2">
    <defs>
     <path id="C1_0_a8d8895424" d="M 0 2.5 
C 0.663008 2.5 1.29895 2.236584 1.767767 1.767767 
C 2.236584 1.29895 2.5 0.663008 2.5 -0 
C 2.5 -0.663008 2.236584 -1.29895 1.767767 -1.767767 
C 1.29895 -2.236584 0.663008 -2.5 0 -2.5 
C -0.663008 -2.5 -1.29895 -2.236584 -1.767767 -1.767767 
C -2.236584 -1.29895 -2.5 -0.663008 -2.5 0 
C -2.5 0.663008 -2.236584 1.29895 -1.767767 1.767767 
C -1.29895 2.236584 -0.663008 2.5 0 2.5 
z
"/>
    </defs>
    <use xlink:href="#C1_0_a8d8895424" x="110.501442" y="186.752971" style="fill: #e78ac3"/>
    <use xlink:href="#C1_0_a8d8895424" x="107.647112" y="229.193886" style="fill: #e78ac3"/>
    <use xlink:href="#C1_0_a8d8895424" x="110.728671" y="225.285045" style="fill: #e78ac3"/>
    <use xlink:href="#C1_0_a8d8895424" x="107.82813" y="214.669231" style="fill: #e78ac3"/>
    <use xlink:href="#C1_0_a8d8895424" x="112.653621" y="200.891102" style="fill: #e78ac3"/>
    <use xlink:href="#C1_0_a8d8895424" x="111.618417" y="211.374923" style="fill: #e78ac3"/>
    <use xlink:href="#C1_0_a8d8895424" x="112.186789" y="200.23207" style="fill: #e78ac3"/>
    <use xlink:href="#C1_0_a8d8895424" x="111.158053" y="197.903665" style="fill: #e78ac3"/>
    <use xlink:href="#C1_0_a8d8895424" x="112.344054" y="214.75516" style="fill: #e78ac3"/>
    <use xlink:href="#C1_0_a8d8895424" x="107.783386" y="228.371444" style="fill: #e78ac3"/>
   </g>
  </g>
  <g id="axes_4">
   <g id="patch_14">
    <path d="M 184.92894 286.547344 
L 333.7 286.547344 
L 333.7 147.980352 
L 184.92894 147.980352 
z
" style="fill: #ffffff"/>
   </g>
   <g id="PolyCollection_7">
    <defs>
     <path id="mfedab585c9" d="M 184.92894 -121.022046 
L 184.92894 -132.934399 
L 192.237706 -154.911206 
L 199.546471 -160.000903 
L 214.164003 -162.545751 
L 228.781534 -168.907872 
L 243.399066 -173.997569 
L 258.016597 -171.45272 
L 272.634129 -173.997569 
L 287.25166 -176.542417 
L 301.869192 -173.997569 
L 316.486723 -177.814841 
L 331.104255 -176.542417 
L 331.104255 -168.907872 
L 331.104255 -168.907872 
L 316.486723 -166.363024 
L 301.869192 -165.090599 
L 287.25166 -167.635448 
L 272.634129 -163.818175 
L 258.016597 -160.637115 
L 243.399066 -160.000903 
L 228.781534 -159.36151 
L 214.164003 -154.911206 
L 199.546471 -147.276661 
L 192.237706 -136.461056 
L 184.92894 -121.022046 
z
" style="stroke: #8da0cb; stroke-opacity: 0.2"/>
    </defs>
    <g clip-path="url(#pe061592142)">
     <use xlink:href="#mfedab585c9" x="0" y="335.847344" style="fill: #8da0cb; fill-opacity: 0.2; stroke: #8da0cb; stroke-opacity: 0.2"/>
    </g>
   </g>
   <g id="PolyCollection_8">
    <defs>
     <path id="m6d036707a4" d="M 184.92894 -50.250391 
L 184.92894 -53.101564 
L 192.237706 -110.37636 
L 199.546471 -137.097268 
L 214.164003 -151.093934 
L 228.781534 -158.728479 
L 243.399066 -158.728479 
L 258.016597 -168.907872 
L 272.634129 -167.635448 
L 287.25166 -168.907872 
L 301.869192 -173.997569 
L 316.486723 -170.180296 
L 331.104255 -175.269993 
L 331.104255 -161.273327 
L 331.104255 -161.273327 
L 316.486723 -166.363024 
L 301.869192 -161.273327 
L 287.25166 -160.000903 
L 272.634129 -160.000903 
L 258.016597 -153.638782 
L 243.399066 -154.911206 
L 228.781534 -149.821509 
L 214.164003 -146.004237 
L 199.546471 -120.555754 
L 192.237706 -105.286663 
L 184.92894 -50.250391 
z
" style="stroke: #e78ac3; stroke-opacity: 0.2"/>
    </defs>
    <g clip-path="url(#pe061592142)">
     <use xlink:href="#m6d036707a4" x="0" y="335.847344" style="fill: #e78ac3; fill-opacity: 0.2; stroke: #e78ac3; stroke-opacity: 0.2"/>
    </g>
   </g>
   <g id="PolyCollection_9">
    <defs>
     <path id="m795327689c" d="M 184.92894 -64.506254 
L 184.92894 -73.059772 
L 192.237706 -116.738481 
L 199.546471 -140.278328 
L 214.164003 -160.000903 
L 228.781534 -168.907872 
L 243.399066 -175.269993 
L 258.016597 -170.180296 
L 272.634129 -174.633781 
L 287.25166 -176.542417 
L 301.869192 -179.087265 
L 316.486723 -179.087265 
L 331.104255 -177.814841 
L 331.104255 -172.088932 
L 331.104255 -172.088932 
L 316.486723 -170.180296 
L 301.869192 -167.635448 
L 287.25166 -163.814994 
L 272.634129 -160.000903 
L 258.016597 -160.000903 
L 243.399066 -157.456054 
L 228.781534 -156.18363 
L 214.164003 -148.549085 
L 199.546471 -128.190299 
L 192.237706 -106.559088 
L 184.92894 -64.506254 
z
" style="stroke: #e5c494; stroke-opacity: 0.2"/>
    </defs>
    <g clip-path="url(#pe061592142)">
     <use xlink:href="#m795327689c" x="0" y="335.847344" style="fill: #e5c494; fill-opacity: 0.2; stroke: #e5c494; stroke-opacity: 0.2"/>
    </g>
   </g>
   <g id="PolyCollection_10">
    <defs>
     <path id="m50870ccea5" d="M 184.92894 -63.555863 
L 184.92894 -66.407036 
L 192.237706 -70.931211 
L 199.546471 -75.384695 
L 214.164003 -81.110604 
L 228.781534 -91.92621 
L 243.399066 -102.741815 
L 258.016597 -118.010905 
L 272.634129 -126.917874 
L 287.25166 -138.369692 
L 301.869192 -143.459389 
L 316.486723 -151.093934 
L 331.104255 -154.911206 
L 331.104255 -142.186964 
L 331.104255 -142.186964 
L 316.486723 -137.097268 
L 301.869192 -118.010905 
L 287.25166 -121.828178 
L 272.634129 -110.37636 
L 258.016597 -105.286663 
L 243.399066 -88.108937 
L 228.781534 -81.746816 
L 214.164003 -73.476059 
L 199.546471 -69.658787 
L 192.237706 -63.290304 
L 184.92894 -63.555863 
z
" style="stroke: #3f784c; stroke-opacity: 0.2"/>
    </defs>
    <g clip-path="url(#pe061592142)">
     <use xlink:href="#m50870ccea5" x="0" y="335.847344" style="fill: #3f784c; fill-opacity: 0.2; stroke: #3f784c; stroke-opacity: 0.2"/>
    </g>
   </g>
   <g id="matplotlib.axis_7">
    <g id="xtick_13">
     <g id="line2d_48">
      <g>
       <use xlink:href="#m5fd7d3e10e" x="184.92894" y="296.547344" style="stroke: #000000; stroke-width: 0.8"/>
      </g>
     </g>
     <g id="text_34">
      <text style="font: 6px 'Arial', sans-serif; text-anchor: middle" x="184.92894" y="307.842031" transform="rotate(-0 184.92894 307.842031)">0.0</text>
     </g>
    </g>
    <g id="xtick_14">
     <g id="line2d_49">
      <g>
       <use xlink:href="#m5fd7d3e10e" x="222.121705" y="296.547344" style="stroke: #000000; stroke-width: 0.8"/>
      </g>
     </g>
     <g id="text_35">
      <text style="font: 6px 'Arial', sans-serif; text-anchor: middle" x="222.121705" y="307.842031" transform="rotate(-0 222.121705 307.842031)">0.4</text>
     </g>
    </g>
    <g id="xtick_15">
     <g id="line2d_50">
      <g>
       <use xlink:href="#m5fd7d3e10e" x="259.31447" y="296.547344" style="stroke: #000000; stroke-width: 0.8"/>
      </g>
     </g>
     <g id="text_36">
      <text style="font: 6px 'Arial', sans-serif; text-anchor: middle" x="259.31447" y="307.842031" transform="rotate(-0 259.31447 307.842031)">0.8</text>
     </g>
    </g>
    <g id="xtick_16">
     <g id="line2d_51">
      <g>
       <use xlink:href="#m5fd7d3e10e" x="296.507235" y="296.547344" style="stroke: #000000; stroke-width: 0.8"/>
      </g>
     </g>
     <g id="text_37">
      <text style="font: 6px 'Arial', sans-serif; text-anchor: middle" x="296.507235" y="307.842031" transform="rotate(-0 296.507235 307.842031)">1.2</text>
     </g>
    </g>
    <g id="xtick_17">
     <g id="line2d_52">
      <g>
       <use xlink:href="#m5fd7d3e10e" x="333.7" y="296.547344" style="stroke: #000000; stroke-width: 0.8"/>
      </g>
     </g>
     <g id="text_38">
      <text style="font: 6px 'Arial', sans-serif; text-anchor: middle" x="333.7" y="307.842031" transform="rotate(-0 333.7 307.842031)">1.6</text>
     </g>
    </g>
    <g id="text_39">
     <text style="font: 6px 'Arial', sans-serif; text-anchor: middle" x="259.31447" y="317.402344" transform="rotate(-0 259.31447 317.402344)">Hours of training data</text>
    </g>
   </g>
   <g id="matplotlib.axis_8">
    <g id="ytick_13">
     <g id="line2d_53">
      <g>
       <use xlink:href="#mea9f032d48" x="174.92894" y="286.547344" style="stroke: #000000; stroke-width: 0.8"/>
      </g>
     </g>
     <g id="text_40">
      <text style="font: 6px 'Arial', sans-serif; text-anchor: end" x="167.92894" y="288.694688" transform="rotate(-0 167.92894 288.694688)">0</text>
     </g>
    </g>
    <g id="ytick_14">
     <g id="line2d_54">
      <g>
       <use xlink:href="#mea9f032d48" x="174.92894" y="240.358346" style="stroke: #000000; stroke-width: 0.8"/>
      </g>
     </g>
     <g id="text_41">
      <text style="font: 6px 'Arial', sans-serif; text-anchor: end" x="167.92894" y="242.50569" transform="rotate(-0 167.92894 242.50569)">30</text>
     </g>
    </g>
    <g id="ytick_15">
     <g id="line2d_55">
      <g>
       <use xlink:href="#mea9f032d48" x="174.92894" y="194.169349" style="stroke: #000000; stroke-width: 0.8"/>
      </g>
     </g>
     <g id="text_42">
      <text style="font: 6px 'Arial', sans-serif; text-anchor: end" x="167.92894" y="196.316693" transform="rotate(-0 167.92894 196.316693)">60</text>
     </g>
    </g>
    <g id="ytick_16">
     <g id="line2d_56">
      <g>
       <use xlink:href="#mea9f032d48" x="174.92894" y="147.980352" style="stroke: #000000; stroke-width: 0.8"/>
      </g>
     </g>
     <g id="text_43">
      <text style="font: 6px 'Arial', sans-serif; text-anchor: end" x="167.92894" y="150.127695" transform="rotate(-0 167.92894 150.127695)">90</text>
     </g>
    </g>
    <g id="text_44">
     <text style="font: 6px 'Arial', sans-serif; text-anchor: middle" x="155.993002" y="217.263848" transform="rotate(-90 155.993002 217.263848)">Classification accuracy (%)</text>
    </g>
   </g>
   <g id="line2d_57">
    <path d="M 184.92894 204.338532 
L 192.237706 194.296591 
L 199.546471 184.117198 
L 214.164003 175.210229 
L 228.781534 174.574017 
L 243.399066 164.394623 
L 258.016597 168.211896 
L 272.634129 168.211896 
L 287.25166 165.667048 
L 301.869192 165.030835 
L 316.486723 165.667048 
L 331.104255 163.122199 
" clip-path="url(#pe061592142)" style="fill: none; stroke: #8da0cb; stroke-width: 2; stroke-linecap: square"/>
   </g>
   <g id="line2d_58">
    <path d="M 184.92894 284.646562 
L 192.237706 230.56068 
L 199.546471 203.839773 
L 214.164003 184.75341 
L 228.781534 183.480986 
L 243.399066 179.663713 
L 258.016597 178.391289 
L 272.634129 169.48432 
L 287.25166 169.48432 
L 301.869192 172.029168 
L 316.486723 169.48432 
L 331.104255 163.122199 
" clip-path="url(#pe061592142)" style="fill: none; stroke: #e78ac3; stroke-width: 2; stroke-linecap: square"/>
   </g>
   <g id="line2d_59">
    <path d="M 184.92894 269.334053 
L 192.237706 222.926135 
L 199.546471 201.294924 
L 214.164003 183.480986 
L 228.781534 173.937805 
L 243.399066 170.756744 
L 258.016597 170.756744 
L 272.634129 168.211896 
L 287.25166 164.394623 
L 301.869192 163.758411 
L 316.486723 163.758411 
L 331.104255 161.849775 
" clip-path="url(#pe061592142)" style="fill: none; stroke: #e5c494; stroke-width: 2; stroke-linecap: square"/>
   </g>
   <g id="line2d_60">
    <path d="M 184.92894 270.390699 
L 192.237706 269.369617 
L 199.546471 261.735072 
L 214.164003 258.554012 
L 228.781534 249.647043 
L 243.399066 240.103862 
L 258.016597 221.653711 
L 272.634129 217.200226 
L 287.25166 207.020833 
L 301.869192 199.386288 
L 316.486723 197.477652 
L 331.104255 187.934471 
" clip-path="url(#pe061592142)" style="fill: none; stroke: #3f784c; stroke-width: 2; stroke-linecap: square"/>
   </g>
   <g id="line2d_61">
    <path d="M 184.92894 271.151011 
L 333.7 271.151011 
" clip-path="url(#pe061592142)" style="fill: none; stroke-dasharray: 5.55,2.4; stroke-dashoffset: 0; stroke: #000000; stroke-width: 1.5"/>
   </g>
   <g id="patch_15">
    <path d="M 174.92894 286.547344 
L 174.92894 147.980352 
" style="fill: none; stroke: #000000; stroke-width: 0.8; stroke-linejoin: miter; stroke-linecap: square"/>
   </g>
   <g id="patch_16">
    <path d="M 184.92894 296.547344 
L 333.7 296.547344 
" style="fill: none; stroke: #000000; stroke-width: 0.8; stroke-linejoin: miter; stroke-linecap: square"/>
   </g>
   <g id="legend_2">
    <g id="patch_17">
     <path d="M 271.718125 283.547344 
L 329.5 283.547344 
Q 330.7 283.547344 330.7 282.347344 
L 330.7 248.998594 
Q 330.7 247.798594 329.5 247.798594 
L 271.718125 247.798594 
Q 270.518125 247.798594 270.518125 248.998594 
L 270.518125 282.347344 
Q 270.518125 283.547344 271.718125 283.547344 
z
" style="fill: #ffffff; opacity: 0.8; stroke: #cccccc; stroke-linejoin: miter"/>
    </g>
    <g id="line2d_62">
     <path d="M 272.918125 252.393281 
L 278.918125 252.393281 
L 284.918125 252.393281 
" style="fill: none; stroke: #8da0cb; stroke-width: 2; stroke-linecap: square"/>
    </g>
    <g id="text_45">
     <text style="font: 6px 'Arial', sans-serif; text-anchor: start" x="289.718125" y="254.493281" transform="rotate(-0 289.718125 254.493281)">Acou. similar</text>
    </g>
    <g id="line2d_63">
     <path d="M 272.918125 260.880469 
L 278.918125 260.880469 
L 284.918125 260.880469 
" style="fill: none; stroke: #e78ac3; stroke-width: 2; stroke-linecap: square"/>
    </g>
    <g id="text_46">
     <text style="font: 6px 'Arial', sans-serif; text-anchor: start" x="289.718125" y="262.980469" transform="rotate(-0 289.718125 262.980469)">Acou. different</text>
    </g>
    <g id="line2d_64">
     <path d="M 272.918125 269.367656 
L 278.918125 269.367656 
L 284.918125 269.367656 
" style="fill: none; stroke: #e5c494; stroke-width: 2; stroke-linecap: square"/>
    </g>
    <g id="text_47">
     <text style="font: 6px 'Arial', sans-serif; text-anchor: start" x="289.718125" y="271.467656" transform="rotate(-0 289.718125 271.467656)">Sem. similar</text>
    </g>
    <g id="line2d_65">
     <path d="M 272.918125 277.854844 
L 278.918125 277.854844 
L 284.918125 277.854844 
" style="fill: none; stroke: #3f784c; stroke-width: 2; stroke-linecap: square"/>
    </g>
    <g id="text_48">
     <text style="font: 6px 'Arial', sans-serif; text-anchor: start" x="289.718125" y="279.954844" transform="rotate(-0 289.718125 279.954844)">No pretrain</text>
    </g>
   </g>
  </g>
 </g>
 <defs>
  <clipPath id="p87a031cad1">
   <rect x="54.7" y="9.347344" width="111.562792" height="79.152846"/>
  </clipPath>
  <clipPath id="pf3b64d3d8a">
   <rect x="222.137208" y="9.347344" width="111.562792" height="79.152846"/>
  </clipPath>
  <clipPath id="pbbe5a03444">
   <rect x="54.7" y="147.980352" width="74.354523" height="138.566992"/>
  </clipPath>
  <clipPath id="pe061592142">
   <rect x="184.92894" y="147.980352" width="148.77106" height="138.566992"/>
  </clipPath>
 </defs>
</svg>
